<?xml version="1.0" encoding="UTF-8" standalone="no"?>
<svg
   xmlns:dc="http://purl.org/dc/elements/1.1/"
   xmlns:cc="http://creativecommons.org/ns#"
   xmlns:rdf="http://www.w3.org/1999/02/22-rdf-syntax-ns#"
   xmlns:svg="http://www.w3.org/2000/svg"
   xmlns="http://www.w3.org/2000/svg"
   xmlns:sodipodi="http://sodipodi.sourceforge.net/DTD/sodipodi-0.dtd"
   xmlns:inkscape="http://www.inkscape.org/namespaces/inkscape"
   version="1.0"
   width="2605.000000pt"
   height="2605.000000pt"
   viewBox="0 0 2605.000000 2605.000000"
   preserveAspectRatio="xMidYMid meet"
   id="svg26"
   sodipodi:docname="Безымянный-1_Монтажная-область-1.svg"
   inkscape:version="1.0.1 (3bc2e813f5, 2020-09-07)">
  <metadata
     id="metadata32">
    <rdf:RDF>
      <cc:Work
         rdf:about="">
        <dc:format>image/svg+xml</dc:format>
        <dc:type
           rdf:resource="http://purl.org/dc/dcmitype/StillImage" />
        <dc:title></dc:title>
      </cc:Work>
    </rdf:RDF>
  </metadata>
  <defs
     id="defs30" />
  <sodipodi:namedview
     pagecolor="#ffffff"
     bordercolor="#666666"
     borderopacity="1"
     objecttolerance="10"
     gridtolerance="10"
     guidetolerance="10"
     inkscape:pageopacity="0"
     inkscape:pageshadow="2"
     inkscape:window-width="1366"
     inkscape:window-height="709"
     id="namedview28"
     showgrid="false"
     inkscape:zoom="0.15547025"
     inkscape:cx="1736.6667"
     inkscape:cy="1736.6667"
     inkscape:window-x="0"
     inkscape:window-y="31"
     inkscape:window-maximized="1"
     inkscape:current-layer="svg26" />
  <g
     transform="translate(0.000000,2605.000000) scale(0.100000,-0.100000)"
     fill="#000000"
     stroke="none"
     id="g24"
     style="fill:#666666">
    <path
       d="M18277 14345 c-81 -28 -117 -84 -117 -179 0 -60 -2 -66 -22 -71 -40 -9 -1110 -175 -1128 -175 -13 0 -21 10 -25 33 -11 50 -40 91 -85 116 -38 21 -49 22 -188 19 -135 -3 -150 -5 -180 -26 -59 -43 -72 -84 -72 -234 0 -119 3 -137 23 -173 12 -22 38 -50 56 -62 31 -21 45 -23 177 -23 114 0 151 3 179 17 l36 17 38 -39 c21 -22 242 -253 490 -513 352 -369 451 -477 445 -490 -5 -10 -10 -80 -11 -157 -3 -131 -2 -143 19 -180 47 -80 116 -102 294 -93 80 5 100 9 135 32 64 43 79 86 79 235 0 106 -3 131 -21 168 -22 46 -87 93 -127 93 -16 0 -22 6 -22 23 0 22 164 1079 175 1123 4 19 13 22 79 26 148 7 195 85 184 306 -6 126 -46 189 -134 211 -60 15 -231 13 -277 -4z m-114 -389 c13 -54 75 -114 127 -122 22 -4 40 -10 40 -14 0 -30 -182 -1146 -188 -1151 -4 -4 -44 -9 -88 -11 l-82 -3 -494 517 -494 517 4 63 c2 35 5 64 6 65 5 5 1122 181 1141 180 14 -2 22 -13 28 -41z"
       id="path2"
       style="fill:#666666" />
    <path
       d="M12619 13667 c-68 -45 -73 -162 -8 -209 57 -43 158 -29 194 26 41 62 24 154 -34 189 -42 25 -111 22 -152 -6z"
       id="path4"
       style="fill:#666666" />
    <path
       d="M8765 13638 c3 -18 9 -354 12 -745 l5 -713 104 0 104 0 0 745 0 745 -116 0 -116 0 7 -32z"
       id="path6"
       style="fill:#666666" />
    <path
       d="M13984 13638 c4 -18 10 -354 13 -745 l5 -713 104 0 104 0 2 432 3 432 70 19 c152 40 305 9 365 -75 45 -61 50 -111 50 -473 l0 -335 110 0 110 0 0 343 c-1 375 -9 456 -54 545 -54 107 -150 172 -287 193 -93 14 -215 6 -299 -20 -36 -12 -66 -21 -67 -21 -2 0 -3 101 -3 225 l0 225 -116 0 -116 0 6 -32z"
       id="path8"
       style="fill:#666666" />
    <path
       d="M7985 13600 c-146 -18 -248 -61 -319 -135 -52 -53 -109 -159 -130 -240 -13 -53 -176 -1008 -176 -1035 0 -7 37 -10 112 -8 l112 3 23 135 c12 74 27 165 33 203 l12 67 269 0 269 0 0 -205 0 -205 110 0 110 0 0 603 c0 331 3 645 6 698 l7 96 -79 11 c-115 17 -278 22 -359 12z m159 -186 l46 -7 0 -313 0 -314 -250 0 -250 0 0 23 c0 46 60 373 77 420 24 66 92 141 147 162 38 15 112 29 167 34 9 0 37 -2 63 -5z"
       id="path10"
       style="fill:#666666" />
    <path
       d="M13190 13390 l0 -140 -80 0 -80 0 0 -95 0 -95 80 0 80 0 0 -283 c0 -162 5 -309 11 -342 22 -122 89 -205 198 -246 71 -27 232 -36 311 -17 l55 13 3 93 c1 50 0 92 -4 92 -3 0 -31 -7 -62 -16 -112 -33 -228 -2 -266 72 -20 36 -21 58 -24 337 l-3 297 151 0 150 0 0 95 0 95 -150 0 -150 0 0 140 0 140 -110 0 -110 0 0 -140z"
       id="path12"
       style="fill:#666666" />
    <path
       d="M9715 13255 c-226 -41 -374 -175 -424 -380 -18 -71 -15 -257 4 -329 36 -134 116 -236 234 -295 110 -56 265 -80 400 -61 45 6 85 10 87 8 8 -9 -18 -133 -36 -167 -29 -57 -91 -108 -157 -128 -106 -32 -312 -17 -435 32 -16 7 -18 -1 -18 -89 l0 -95 52 -16 c81 -24 225 -38 315 -31 198 16 329 82 412 207 75 112 74 101 82 699 4 294 9 546 11 560 3 22 -4 27 -57 46 -137 49 -329 65 -470 39z m288 -180 c16 -7 17 -33 17 -346 l0 -338 -22 -13 c-30 -17 -229 -17 -284 -1 -141 43 -216 161 -215 340 0 130 28 211 95 279 75 74 143 95 286 90 58 -2 113 -7 123 -11z"
       id="path14"
       style="fill:#666666" />
    <path
       d="M10905 13260 c-193 -41 -319 -164 -372 -363 -23 -86 -22 -288 1 -377 49 -183 181 -313 354 -349 75 -16 208 -14 275 4 174 45 299 176 342 357 17 71 20 260 6 334 -35 183 -146 318 -309 375 -64 23 -231 34 -297 19z m210 -181 c57 -15 137 -100 161 -170 27 -78 27 -310 0 -388 -23 -67 -86 -137 -146 -164 -112 -50 -262 -10 -328 87 -49 73 -66 143 -66 271 0 243 96 375 273 375 36 0 84 -5 106 -11z"
       id="path16"
       style="fill:#666666" />
    <path
       d="M15535 13254 c-72 -11 -264 -58 -271 -67 -1 -1 2 -76 7 -167 4 -91 8 -317 8 -502 l1 -338 105 0 105 0 0 439 0 439 53 13 c28 7 93 13 142 13 107 0 167 -22 209 -77 52 -68 56 -100 56 -479 l0 -348 110 0 110 0 0 353 c0 339 -7 427 -35 499 -16 41 220 70 325 39 61 -18 114 -73 134 -141 13 -45 16 -111 16 -402 l0 -348 111 0 110 0 -3 383 c-4 353 -6 387 -24 443 -57 169 -173 247 -389 261 -103 6 -193 -6 -320 -42 l-89 -26 -55 25 c-104 46 -245 57 -416 30z"
       id="path18"
       style="fill:#666666" />
    <path
       d="M12072 13249 c-92 -10 -262 -45 -273 -56 -4 -5 -3 -57 1 -118 5 -60 9 -287 9 -502 l1 -393 105 0 105 0 0 439 0 439 94 11 c55 7 125 9 165 5 l71 -7 0 90 0 90 -37 7 c-48 7 -136 6 -241 -5z"
       id="path20"
       style="fill:#666666" />
    <path
       d="M12575 13223 c4 -16 9 -256 12 -535 l5 -508 104 0 104 0 0 535 0 535 -116 0 -116 0 7 -27z"
       id="path22"
       style="fill:#666666" />
  </g>
</svg>
