<?xml version="1.0" encoding="UTF-8" standalone="no"?>
<svg
   xmlns:dc="http://purl.org/dc/elements/1.1/"
   xmlns:cc="http://creativecommons.org/ns#"
   xmlns:rdf="http://www.w3.org/1999/02/22-rdf-syntax-ns#"
   xmlns:svg="http://www.w3.org/2000/svg"
   xmlns="http://www.w3.org/2000/svg"
   xmlns:sodipodi="http://sodipodi.sourceforge.net/DTD/sodipodi-0.dtd"
   xmlns:inkscape="http://www.inkscape.org/namespaces/inkscape"
   version="1.1"
   width="595.27557"
   height="841.88977"
   id="svg7"
   viewBox="0 0 595.27557 841.88977"
   sodipodi:docname="Amiral_Palace_Hotel_Logo.cdr.svg"
   inkscape:version="1.0.1 (3bc2e813f5, 2020-09-07)">
  <metadata
     id="metadata13">
    <rdf:RDF>
      <cc:Work
         rdf:about="">
        <dc:format>image/svg+xml</dc:format>
        <dc:type
           rdf:resource="http://purl.org/dc/dcmitype/StillImage" />
        <dc:title></dc:title>
      </cc:Work>
    </rdf:RDF>
  </metadata>
  <defs
     id="defs11" />
  <sodipodi:namedview
     pagecolor="#ffffff"
     bordercolor="#666666"
     borderopacity="1"
     objecttolerance="10"
     gridtolerance="10"
     guidetolerance="10"
     inkscape:pageopacity="0"
     inkscape:pageshadow="2"
     inkscape:window-width="751"
     inkscape:window-height="480"
     id="namedview9"
     showgrid="false"
     inkscape:zoom="0.64141414"
     inkscape:cx="297.63779"
     inkscape:cy="420.94489"
     inkscape:window-x="0"
     inkscape:window-y="31"
     inkscape:window-maximized="0"
     inkscape:current-layer="svg7" />
  <g
     id="Layer1000"
     style="fill:#666666">
    <path
       d="m 278.1737,222.7712 c 84.0834,0 152.2723,68.1888 152.2723,152.2723 0,84.0834 -68.1889,152.2722 -152.2723,152.2722 -84.0834,0 -152.2723,-68.1888 -152.2723,-152.2722 0,-84.0835 68.1889,-152.2723 152.2723,-152.2723 z m 0,-11.0342 c 90.1765,0 163.3065,73.1302 163.3065,163.3062 0,90.1766 -73.13,163.3068 -163.3065,163.3068 -90.1763,0 -163.3065,-73.1302 -163.3065,-163.3068 0,-90.176 73.1302,-163.3062 163.3065,-163.3062 z"
       style="fill:#666666;fill-rule:evenodd;stroke:#1b1918;stroke-width:0.216;stroke-linecap:butt;stroke-linejoin:miter;stroke-dasharray:none"
       id="path2" />
    <path
       d="m 309.5567,369.5511 0.5876,-0.4116 c 1.2975,2.7637 0.2233,3.8688 -1.9275,4.2245 1.6121,-0.8965 2.2998,-2.091 1.3399,-3.8129 z m -8.1836,1.5188 c 1.4029,2.0551 4.1357,1.1188 4.4918,-1.6732 0.8819,3.6204 -2.7477,5.2927 -5.4788,2.6804 z m -49.0145,-0.5882 -0.4014,0.798 c 1.0172,1.7179 2.3022,1.1285 3.6862,-0.2961 -1.4203,0.8758 -2.6096,1.009 -3.2848,-0.5019 z m -2.6204,0.5195 -0.5221,0.7631 c 1.0769,0.7284 2.0675,0.3691 2.9749,-1.075 -1.0749,0.5147 -2.0106,0.8129 -2.4528,0.3119 z m -2.4521,1.9432 -0.3323,0.8321 c 2.2154,1.4559 3.8069,0.8254 4.9679,-1.2324 -1.5835,1.3063 -3.137,1.683 -4.6356,0.4003 z m -5.3188,2.7656 c 1.5907,1.5994 3.395,0.6652 5.3205,-1.6906 -1.3727,3.3939 -3.393,3.8949 -5.8548,2.416 z m 37.1338,-11.9535 c 1.5871,-4.2029 6.5064,-3.2803 4.6658,0.5906 l 0.2322,1.7092 c 4.5734,-6.396 -4.577,-7.64 -4.898,-2.2998 z m -8.8331,7.7904 c 2.8862,-0.881 5.4009,0.8032 2.8499,3.4347 l 1.7102,0.0623 c 1.0439,-3.5553 -2.0709,-5.2547 -4.5601,-3.497 z m 57.2265,6.8648 c 0.5548,0 1.0023,0.4448 1.0023,0.9914 0,0.5508 -0.4475,0.9965 -1.0023,0.9965 -0.5546,0 -1.0048,-0.4457 -1.0048,-0.9965 0,-0.5466 0.4502,-0.9914 1.0048,-0.9914 z m -21.0606,-16.7188 c 0.8206,0 1.4861,0.5721 1.4861,1.2798 0,0.7062 -0.6655,1.2753 -1.4861,1.2753 -0.8222,0 -1.4869,-0.5691 -1.4869,-1.2753 0,-0.7077 0.6647,-1.2798 1.4869,-1.2798 z m -0.0291,0.6399 c 0.4022,0 0.7293,0.2867 0.7293,0.6399 0,0.3536 -0.3271,0.6391 -0.7293,0.6391 -0.4023,0 -0.7302,-0.2855 -0.7302,-0.6391 0,-0.3532 0.3279,-0.6399 0.7302,-0.6399 z m -1.8956,-2.2393 c 0.3695,0 0.67,0.3022 0.67,0.674 0,0.3709 -0.3005,0.6691 -0.67,0.6691 -0.3711,0 -0.6707,-0.2982 -0.6707,-0.6691 0,-0.3718 0.2996,-0.674 0.6707,-0.674 z m -49.743,8.3225 c 0.4636,0 0.8401,0.4119 0.8401,0.9205 0,0.5071 -0.3765,0.9196 -0.8401,0.9196 -0.4635,0 -0.8391,-0.4125 -0.8391,-0.9196 0,-0.5086 0.3756,-0.9205 0.8391,-0.9205 z m 15.0507,4.2922 c 0.5263,0 0.9507,0.4652 0.9507,1.0413 0,0.5767 -0.4244,1.0418 -0.9507,1.0418 -0.5245,0 -0.9518,-0.4651 -0.9518,-1.0418 0,-0.5761 0.4273,-1.0413 0.9518,-1.0413 z m 1.5674,-9.9343 c 0.3387,0 0.6142,0.3165 0.6142,0.7068 0,0.3895 -0.2755,0.7041 -0.6142,0.7041 -0.342,0 -0.6167,-0.3146 -0.6167,-0.7041 0,-0.3903 0.2747,-0.7068 0.6167,-0.7068 z m 7.7859,2.4567 c 1.0272,3.1261 3.3214,4.0642 6.6684,3.1911 1.1396,-0.6341 2.0223,-0.8487 2.3369,-0.1252 0.3174,-0.4417 0.6344,-0.5895 0.9518,-0.4426 -0.0505,-1.2024 0.3082,-1.9481 1.579,-1.7007 1.3435,-2.7743 3.6527,-4.5497 7.1284,-5.1215 -1.7813,-5.8695 6.5575,-8.2061 8.8431,-1.5268 3.2593,-1.7216 8.1401,0.3244 4.8092,4.5002 l 0.4458,0.4594 1.1057,-2.0831 c 3.2541,0.1381 4.9785,5.0703 2.5389,7.7379 -0.4733,0.4983 -0.9926,0.8108 -1.5774,0.8537 -1.0075,0.539 -1.2821,1.247 -0.4838,2.1976 1.8476,0.0855 3.0882,3.0319 5.5411,0.2621 0.4147,-0.574 1.0927,-0.7263 1.9524,-0.5962 l 1.5693,-0.1301 0.2888,-0.6974 c 1.364,0.5788 2.2509,1.7997 4.0968,1.7365 0.2774,1.5042 1.2381,1.9268 3.0191,1.0507 l 1.1601,-0.8467 c 0.1862,-0.2408 0.5734,-0.2505 1.159,-0.0274 0.9191,0.9072 1.2168,1.9189 0.5166,3.0979 1.8822,-1.0166 4.5071,2.1988 0.5115,4.2749 1.9194,0.9762 3.4754,2.0083 4.6683,3.0978 -1.0297,-0.5302 -2.0046,-0.9187 -2.8606,-0.9944 -0.8453,3.3727 -3.3301,4.6227 -7.792,3.3049 -3.1406,-1.5122 -5.6653,-3.6952 -6.983,-7.2077 -0.8542,0.5709 -1.2975,1.4626 -1.3258,2.6765 -1.6941,-0.2186 -2.4076,-1.248 -2.3765,-2.8911 -1.4259,0.9682 -2.7428,1.4409 -3.8017,0.701 -1.1723,0.7354 -2.1172,0.9664 -2.8304,0.6943 -2.7791,1.6636 -5.2487,1.2538 -7.3817,-1.4352 -1.0281,0.7886 -2.0231,0.8829 -2.9758,-0.0331 l -1.2947,-0.1952 c -1.159,-0.2833 -1.9036,-0.9059 -1.5002,-2.4664 l 0.0433,-0.6615 -0.2444,-0.3195 -0.6808,0.5828 -2.1019,0.6749 c -1.6881,-0.0165 -2.7816,-0.8935 -3.4791,-2.3375 h 1.0492 c 0.7515,-1.9053 0.4963,-3.5019 -1.237,-4.6489 -0.1922,-0.1143 -0.3537,-0.0766 -0.4838,0.1186 -1.1043,2.0879 -3.0937,3.064 -6.3768,2.4162 -1.7938,2.4548 -3.7717,3.7125 -6.2529,1.6556 -2.35,4.9432 -5.8354,6.6553 -11.3448,2.6096 -1.0669,-0.9081 -1.673,-0.5819 -2.0203,0.4378 -1.1716,3.6766 -6.9217,3.466 -7.9754,-1.5818 -0.0443,-0.5907 -0.203,-0.6496 -0.4785,-0.1796 -0.2774,0.9126 -0.8766,1.2205 -1.7202,1.0768 -1.0597,0.3216 -1.2192,0.8974 -0.4802,1.7294 0.5911,0.6576 0.6647,1.2267 -0.01,1.6657 -0.5282,-0.0261 -0.9696,-0.1487 -1.2967,-0.3913 -0.3118,-0.3566 -0.6644,-0.4836 -1.1093,-0.1088 -0.7329,0.2262 -1.4426,0.3271 -2.064,-0.0137 -0.5601,-0.3368 -1.096,-0.4058 -1.5809,0.1049 -0.7105,0.5448 -1.0659,1.3653 -1.26,2.3162 -0.28,0.5108 -0.6531,0.7439 -1.1893,0.4825 -3.1653,4.0098 -7.0876,5.4694 -11.7656,4.3749 -1.3282,-0.0194 -1.9513,0.5828 -2.0967,1.614 0.1623,0.9731 -0.5404,1.4723 -1.7271,1.7073 -1.8379,0.201 -3.175,0.0766 -3.7767,-0.5214 -2.904,0.3302 -5.4392,0.1736 -6.6543,-1.7191 -0.4777,-1.2604 -0.2056,-2.4725 1.2237,-3.6077 0.6028,2.2406 2.6728,3.2788 4.2582,2.4367 -3.2374,0.2252 -4.8899,-2.8434 -2.2828,-4.3701 l -0.4219,-0.0651 c -0.7213,0.5828 -1.4037,0.5673 -2.0471,-0.0456 -0.1328,-1.0099 0.3332,-1.5139 1.2043,-1.6693 1.4384,-0.1584 2.2723,0.2262 2.8313,0.8555 1.4464,-2.0606 3.014,-2.0062 4.6541,-0.6381 -1.4062,-0.3205 -2.459,-0.0447 -2.8684,1.2996 0.4901,0.5922 0.6105,1.3167 -0.0797,2.3296 1.5214,1.2312 3.767,0.1389 6.2154,-1.6052 l 13.0062,-12.2119 c 7.2091,-6.1412 14.7689,-8.7101 23.0244,-4.2205 0.7357,-6.4015 6.2759,-8.835 9.6115,-3.324 2.0337,-4.8352 6.5078,-5.5442 9.6581,-2.5552 2.0037,2.4074 1.1246,5.6171 -1.5524,6.8037 -2.5789,0.846 -4.5213,0.2438 -5.8276,-1.8122 z m 18.1549,-24.2874 c 0.0311,0.005 0.3482,-0.1556 0.3482,-0.1556 l 1.7804,4.913 -0.1312,-3.9971 0.3573,0.004 0.2089,5.0933 0.3775,1.0275 1.3,-4.2904 0.3157,0.2815 -1.3871,4.5498 0.468,1.4391 -0.357,0.1408 z m -7.233,-1.0053 0.2297,-0.3183 5.0298,5.8284 -1.8415,-5.3256 0.3687,-0.1514 2.8526,8.4584 -0.2924,0.0827 -0.0859,-0.0709 -0.8348,-2.2785 z m 8.5366,-18.9317 c 4.0072,1.7586 7.793,3.759 11.5051,5.8363 l -10.5703,-8.6052 z m -13.6132,-4.5033 c 4.4441,1.0868 8.7268,2.526 12.8811,4.2467 l 1.0955,-2.7248 z m -2.0018,0.1 -0.0852,0.242 c -2.958,10.2587 -3.7556,17.5053 -1.7723,22.6977 6.6248,-3.7271 16.5481,-2.2423 20.395,2.7483 1.0314,1.4033 1.8609,1.8888 1.3435,5.0538 5.9799,-1.6857 10.1031,-10.9212 9.2578,-18.7922 -9.1108,-5.3946 -18.6779,-9.7112 -29.1388,-11.9496 z m 16.1529,1.0847 c -5.8745,-0.674 -11.9926,-1.2175 -17.6248,-2.0277 l 0.0158,0.404 0.9942,0.1079 c -1.8758,5.5372 -2.9677,11.2495 -3.0207,17.1868 -0.1171,2.4132 0.2161,4.7285 1.2042,6.8979 l 0.1462,-0.4235 0.326,0.1195 -0.0247,0.2787 c 6.1075,-3.2221 14.495,-2.761 18.5003,1.3665 -6.0534,-2.8619 -12.291,-2.8251 -18.6457,-0.9187 l -0.4563,2.0277 3.0634,0.7136 -0.7664,-2.8483 0.3598,-0.0991 0.8868,3.0708 0.2375,0.065 -0.4111,-2.9646 2.7533,-0.4196 0.6203,4.0348 3.3711,0.8306 h 0.615 c 2.8898,1.6069 5.6182,4.0949 8.7349,5.7752 l 0.7709,-0.9139 1.6509,1.2759 -0.6566,1.0957 c 0.4785,0.8263 0.7204,1.8207 0.9279,2.8376 l -0.7842,-0.0119 -0.1313,-1.8538 -0.9864,-0.902 -0.5635,2.011 -0.5936,-0.4195 0.5182,-2.0159 -1.548,-1.0421 -0.5051,1.7887 -0.6123,-0.4611 0.5279,-1.7879 -1.5798,-1.0953 -0.506,1.776 -0.5673,-0.4496 0.453,-1.6277 -1.5652,-1.144 -0.4838,1.6122 -0.6849,-0.5515 0.443,-1.5237 -2.2162,-1.5908 -0.1604,1.6343 -0.8666,-0.0222 -0.0807,-1.4352 -2.2562,1.1041 0.2208,1.3915 -0.6666,0.3301 -0.2799,-1.479 -1.6529,0.9276 0.2464,1.4653 -0.6228,0.331 -0.233,-1.5914 -1.6909,0.9798 0.1773,1.5002 -0.5956,0.3022 -0.1551,-1.4519 -1.8309,0.8701 0.2783,1.4616 -0.6256,0.2943 -0.2544,-1.417 -1.6428,0.9157 0.162,1.3984 -0.5759,0.3256 -0.1765,-1.4382 -1.673,0.8691 0.1525,1.3759 -0.6727,0.4138 -0.1939,-1.4218 -1.2655,0.7274 0.1525,1.3538 -1.0103,0.5262 0.124,0.2001 1.0015,-0.4691 0.1434,1.6732 1.2902,-0.7943 -0.1684,-1.5246 0.6284,-0.3235 0.2649,1.5316 1.6112,-0.9196 -0.1648,-1.486 0.5715,-0.2855 0.248,1.4714 1.7202,-0.8603 -0.2419,-1.5471 0.6256,-0.27 0.3243,1.4246 1.6278,-0.9254 -0.1639,-1.3936 0.5398,-0.3535 0.2311,1.5024 1.6545,-0.9683 -0.1523,-1.3945 0.6344,-0.2875 0.2314,1.3692 1.6889,-0.8758 -0.2747,-1.3702 0.7233,-0.3487 0.2851,1.5857 1.7502,-0.9245 0.0108,-1.6693 h 0.8134 l -0.063,1.6927 1.6695,1.1781 0.3501,-1.3608 0.6708,0.4876 -0.3215,1.1489 1.5507,1.1351 0.288,-1.1117 0.63,0.4554 -0.3155,1.0528 1.5882,1.1652 0.2719,-1.0479 0.5903,0.4351 -0.2341,0.9868 1.5474,1.0263 0.2738,-0.8196 0.529,0.401 -0.1162,0.6955 c -2.0548,0.7458 -3.4274,3.0687 -2.6521,5.377 -3.5783,0.3262 -5.7452,2.1432 -6.9466,4.9778 -0.9005,-0.1173 -1.7236,0.4293 -2.5231,1.1616 -1.0101,0.7333 -2.0451,0.9625 -3.1076,0.6828 1.541,-0.6448 3.0704,-2.1919 3.1448,-3.6341 0.0835,-1.34 -0.1976,-2.6065 -0.7302,-3.8223 l 0.3554,-0.8779 c 0.4902,-0.1089 0.9623,-0.0806 1.4126,0.1468 0.405,0.1009 0.6372,-0.007 0.6974,-0.3256 -0.4014,-2.5412 -1.7341,-3.6958 -4,-3.4714 -1.8665,0.2155 -3.0779,1.1439 -3.8452,2.5597 -2.6746,-0.2067 -4.1551,1.2808 -4.9643,3.7183 -3.261,-5.1207 -8.999,-2.4093 -10.181,2.8738 -1.8798,-0.8576 -3.7345,-1.4112 -5.5546,-1.5492 -0.3784,-0.2825 -0.4741,-0.698 -0.4395,-1.1741 0.0167,-0.7661 0.179,-1.4322 0.4899,-2.0034 l 0.7887,0.1429 0.0755,-1.8122 -0.5662,-0.17 c -0.1393,-0.7633 -0.1676,-1.5255 0.046,-2.2879 l 0.7843,-0.0389 0.5537,-2.3588 -1.7688,-5.0389 0.3626,-0.1508 1.5588,4.5896 0.4225,-1.51 -1.1166,-4.1263 0.3323,-0.1632 0.9793,3.6213 0.8738,-2.6221 0.63,-3.0318 0.42,0.0632 -0.6486,2.9239 1.659,-0.2708 0.6477,-4.1768 h 0.3429 l -0.6494,4.1768 6.8712,-3.7147 0.1922,0.2894 -6.6123,3.7059 c 2.4803,1.7644 6.2162,2.0335 11.4651,0.5089 l 1.2778,-5.5916 -2.5636,-0.6439 0.0913,-0.3721 2.5663,0.6098 0.4023,-1.8401 c -2.2304,0.7226 -4.4042,1.7015 -6.5037,3.0261 -5.2628,-15.0727 -7.9575,-29.7298 -6.5158,-43.714 7.4393,-2.2986 16.2574,-3.5183 26.3305,-3.7554 l 7.0327,14.9057 -1.0051,0.7488 0.8314,1.1917 z m -4.8872,-21.3382 c 5.6148,-0.0961 11.0415,0.4962 16.4968,0.9886 1.9611,9.9344 1.3017,19.5349 -0.522,28.9858 l -10.6294,-8.4225 1.4187,-4.6282 1.1299,-0.8585 -0.6957,-1.5042 -0.2322,0.1271 z m -1.1121,-2.4065 0.8197,1.7635 c 4.6469,-0.0523 9.0919,0.3612 13.5324,0.7868 z m -0.8597,-1.9858 0.6133,1.4003 20.918,3.7767 c -0.04,-2.0937 -0.243,-4.171 -0.8969,-6.2045 -5.963,-0.301 -13.1293,0.2447 -20.6344,1.0275 z m -0.4112,0.0775 -4.1764,0.2895 4.7729,0.9266 z m -48.8061,9.5878 0.7689,-0.2544 c 11.5309,-3.998 23.0607,-6.5414 34.5933,-8.4913 l 6.7852,-0.3517 c -6.0134,1.7152 -12.0261,4.0059 -18.0412,6.6155 -1.4711,0.6545 -2.9411,1.0157 -4.4131,1.2118 l -0.2224,0.4526 4.43,-0.6575 c -1.3347,10.825 0.4899,24.2664 5.4747,40.3255 -3.544,1.4714 -7.2391,4.0089 -11.0718,7.5175 -1.7219,-1.9761 -3.3817,-4.0834 -4.7615,-6.32 -7.4446,-12.0767 -11.9454,-25.5189 -13.5421,-40.048 z m -7.9385,2.6804 7.4191,-2.1821 v -0.9993 l 1.6828,-0.6369 c -3.1733,0.6931 -6.3175,1.4896 -9.4156,2.4509 -0.4625,0.7324 0.172,1.0859 0.3137,1.3674 z m 42.8213,-26.164 0.1063,4.4868 c 0.7099,-0.1127 1.4481,0.007 2.211,0.3642 l 0.5503,4.0844 -1.205,2.4074 c 1.8839,-0.1739 3.8113,-0.3186 5.766,-0.4527 l -5.4065,-11.0357 -0.7399,0.0477 0.6461,4.5534 -0.3537,0.0505 -0.6885,-4.5388 z m -2.3341,0.4615 c 0.0211,0 0.7923,-0.1806 0.7923,-0.1806 l -0.5665,4.4194 0.2996,0.004 0.6344,-4.5166 0.2253,-0.031 0.0291,4.3302 c -0.7914,0.2378 -1.5083,0.5515 -2.1754,0.9099 l 0.7823,-4.9373 z m -0.4095,0.0836 -0.6461,0.1377 -1.4622,11.7438 3.3631,-0.6068 c -0.6789,-0.5314 -1.2867,-1.1333 -1.8121,-1.8219 l -0.6408,-4.0825 0.3864,-0.2527 z m -21.6683,12.5214 3.0534,4.2905 c 5.2195,-1.9499 10.5961,-3.535 16.0946,-4.8304 l 1.4365,-11.766 c -6.4548,1.3781 -13.3446,5.6704 -20.5845,12.3059 z m -9.4875,8.7837 5.5724,-2.0433 -0.3155,-2.888 z m 41.7854,-21.9092 0.1179,0.2417 4.9207,10.626 c 5.6032,-0.0961 11.1684,-0.2165 16.5865,-0.0456 0.9632,0.0301 1.9186,0.1486 2.8676,0.1942 l 1.9832,0.4718 v 0.2739 l 0.5238,-0.1136 c -6.3558,-4.6817 -13.242,-8.408 -20.2242,-10.3189 -2.2711,-0.6226 -4.4724,-1.151 -6.7755,-1.3295 z m -8.3867,-18.254 0.147,1.4838 7.7071,16.7234 c -1.6661,-0.1292 -3.3373,-0.2854 -4.9529,-0.1085 l 5.4472,11.1765 0.3174,-0.005 v -1.7149 l -1.2478,-0.9208 1.1033,-1.6255 1.4081,1.2227 -0.8683,1.2826 0.1781,1.7161 3.8025,-0.0717 -5.0805,-10.9631 0.1595,-0.066 -7.6979,-16.7821 c 0.2657,0.0137 0.5218,0.1721 0.7709,0.4518 l -0.004,0.5262 c 2.6878,-0.3031 5.1654,-0.4496 7.4668,-0.331 z m -8.7412,3.9931 8.1278,-4.0427 c -0.286,0.2049 -0.4277,0.67 -0.4216,1.3936 -0.5609,0.1328 -0.9454,0.5457 -1.0742,1.3741 -2.2376,0.2943 -4.4474,0.7223 -6.632,1.275 z m 7.9916,-10.8786 h 0.4741 l 0.1948,6.455 10.8654,2.4618 2.6531,0.177 -0.0274,0.4156 -3.3675,-0.2089 c 3.7192,3.828 5.8337,10.3618 8.0374,17.6044 5.8834,2.0423 11.7259,5.3295 17.6534,9.647 l -0.1498,0.2478 6.7197,-1.3355 c 0.445,0.5235 0.4716,1.0655 -0.1134,1.6374 l -6.0393,1.0607 -0.2294,-0.8373 -2.7958,-0.1039 1.3788,-0.2399 -1.6897,-0.4244 c -6.2734,-0.3408 -12.6972,-0.2651 -19.1378,-0.1398 l 1.1582,2.5998 -0.4112,0.0775 -1.1662,-2.6305 -3.9798,0.0775 0.2686,3.3407 5.7912,1.1011 0.847,1.7694 -6.3467,0.2924 0.0125,0.2341 h -0.972 l -0.0242,-0.169 c -5.8805,0.5262 -11.5811,1.4245 -16.9948,2.9017 5.5527,-2.3715 11.1922,-4.4285 16.9443,-6.0677 l -0.17,-3.4231 -6.5586,0.4196 0.3343,2.3141 -2.937,0.3845 -0.2702,-2.1928 -3.6304,0.6506 -0.2225,2.2074 -0.3704,0.0681 0.2258,-2.1928 c -5.2497,1.3303 -10.5214,2.7871 -15.879,4.7711 l 0.8125,1.178 -7.8027,2.1317 -0.1035,-0.8208 -6.5905,2.2794 -0.1312,-0.3517 0.7701,-0.2165 -0.1764,-0.1806 5.6281,-5.3015 c -0.4688,-3.3873 -0.6982,-6.7025 -0.7268,-9.9547 l -1.859,-2.5959 0.3119,-0.2797 6.3998,9.0995 c 2.3173,-2.059 4.7063,-4.0788 7.3234,-5.9743 1.1874,-7.5905 2.606,-14.7504 5.1352,-19.8477 l -2.6185,1.209 -0.1453,-0.3885 c 1.3068,-0.6323 2.591,-1.2081 3.7589,-1.5148 l 9.9935,-4.9675 z m 0.7629,-0.4545 v 2.7407 l 0.6655,-1.217 z m -1.1671,-1.9605 c -0.3351,0.5439 -0.84,0.9692 -1.5915,1.2255 -0.1525,0.0981 -0.1728,0.231 -0.0646,0.4009 l 0.6256,1.0139 c 0.7293,-0.2329 1.3168,-0.636 1.7837,-1.1777 -0.1675,-0.5895 -0.4083,-1.0899 -0.7532,-1.4626 z m 0.1329,-8.1963 0.5496,0.2496 v 8.5331 l -0.506,-1.0032 z m -1.9149,0.1234 0.5395,0.1116 c -0.4491,2.5269 -0.2488,4.7528 0.9704,6.3346 l -0.1523,0.165 c -1.3895,-1.9964 -1.7982,-4.2214 -1.3576,-6.6112 z m -8.4716,11.0193 c 1.1925,-1.1014 2.0317,-3.0163 2.7707,-5.1635 1.2265,-3.8019 2.717,-6.5045 5.1904,-6.0266 -0.3978,2.3645 0.3526,4.7321 1.8157,7.0976 -0.4014,0.5867 -0.8852,0.9956 -1.4567,1.2297 -1.2858,-1.3899 -2.9617,-0.9306 -3.4516,-0.346 -1.8584,1.9396 -3.2992,3.2155 -4.8685,3.2088 z m -5.5264,-3.9584 c 1.0572,-0.4585 2.57,-0.332 4.4256,0.2371 l 2.4751,0.839 c -0.1826,0.7196 -0.5901,1.4061 -1.3239,2.0433 -1.2078,1.0108 -2.181,0.8582 -2.9394,-0.3527 -0.8126,-1.0157 -1.5616,-2.0237 -2.6374,-2.7667 z m -6.9749,-0.4798 c -1.0201,0.2505 1.2478,-1.4352 2.0639,-1.6975 1.7713,-0.57 3.5553,0.2195 4.4167,1.8879 -0.3085,0.1292 -0.6752,-0.0195 -0.9784,-0.1134 -1.9231,-0.5837 -3.6358,-0.5381 -5.5022,-0.077 z m -95.0419,208.2873 h 239.7923 v 1.1604 H 158.5218 Z m 24.1817,3.3921 0.2586,0.0244 0.2474,0.0668 0.2259,0.1098 0.2055,0.1468 0.172,0.1894 0.1382,0.2204 0.0896,0.2545 0.0327,0.2797 -0.0327,0.2806 -0.0896,0.2562 -0.1382,0.2235 -0.1745,0.1845 -0.203,0.1496 -0.227,0.1076 -0.2471,0.066 -0.2578,0.0225 -0.2596,-0.0225 -0.2447,-0.0669 -0.2261,-0.1067 -0.2019,-0.1496 -0.1729,-0.1854 -0.1345,-0.2244 -0.0905,-0.2584 -0.031,-0.2766 0.031,-0.2779 0.0905,-0.2563 0.1345,-0.2204 0.1729,-0.1876 0.2019,-0.1486 0.2244,-0.1089 0.2436,-0.0677 z m 190.5986,2.6057 v 7.7154 h 2.975 v 2.1569 h -5.3019 v -9.8723 z m -28.7798,0 v 6.3704 l 0.0327,0.1806 0.0319,0.1855 0.0461,0.1273 0.2987,0.4156 0.4031,0.301 0.4822,0.1894 0.529,0.0632 0.5246,-0.0623 0.4838,-0.1885 0.4014,-0.3001 0.2855,-0.3991 0.0194,-0.0736 0.0674,-0.4341 V 469.42 l 0.038,-0.2642 v -5.8372 h 2.3022 v 6.617 l -0.0566,0.4177 -0.0932,0.3727 -0.1354,0.2982 -0.1364,0.3594 -0.2633,0.3438 -0.7817,0.7117 -0.8514,0.5119 -0.8988,0.3089 -0.9233,0.1058 -0.9235,-0.1022 -0.8993,-0.3085 -0.8517,-0.5129 -0.7956,-0.7284 -0.2039,-0.3283 -0.1923,-0.366 -0.0921,-0.3195 -0.0968,-0.3457 -0.0432,-0.3973 -0.0444,-0.3825 v -6.2558 z m -26.7872,7.764 h 0.5193 l 0.4361,-0.042 0.6053,-0.2027 0.3765,-0.2566 0.1712,-0.2456 0.0335,-0.2059 -0.0691,-0.2222 -0.2188,-0.2605 -0.4112,-0.2493 -0.5903,-0.1769 h -0.8525 z m 0,-3.8864 c 2.6915,0.1571 2.1508,-2.149 0.1057,-1.7657 h -0.1057 z m -2.3394,-3.8776 h 1.9117 l 0.9534,0.0416 0.4014,0.0514 0.6708,0.1468 0.3251,0.1554 0.275,0.1465 0.2427,0.1633 0.2472,0.2173 0.3251,0.4196 0.2552,0.4566 0.1792,0.4952 0.0902,0.5186 -0.015,0.5339 -0.1321,0.5216 -0.2613,0.4904 -0.1312,0.1487 0.4883,0.2611 0.6558,0.7555 0.2757,0.8895 -0.0782,0.9053 -0.3598,0.837 -0.5715,0.7186 -0.7399,0.5603 -0.8633,0.3438 -0.4552,0.0514 -0.4672,0.0429 h -3.2221 z m -30.204,9.8723 v -10.9573 l 7.3702,6.8717 v -5.7867 h 2.3272 v 10.9074 l -7.3677,-6.828 v 5.7929 z m -23.4266,-3.7174 -1.1493,-2.3327 -1.229,2.3239 z m 0.7418,1.5285 h -3.8849 l -1.1024,2.1889 h -2.5825 l 5.7,-10.8524 5.503,10.8524 h -2.576 z m -27.8655,-5.5247 v 7.7136 h -2.3386 v -7.7136 h -2.3191 v -2.1587 h 6.9752 v 2.1587 z m -23.5631,-0.1836 -1.9263,0.9905 -0.3723,-0.4545 -0.1631,-0.163 -0.1676,-0.1292 -0.1684,-0.0982 -0.1781,-0.0678 -0.1914,-0.0398 -0.21,-0.0128 -0.2374,0.0177 -0.2064,0.0358 -0.1285,0.0377 -0.0779,0.0301 -0.1462,0.0915 -0.1357,0.1213 -0.0638,0.0952 -0.0283,0.0681 0.0283,0.2125 0.0904,0.1912 0.1418,0.1584 0.2169,0.1438 0.2794,0.1283 0.3259,0.1143 0.3537,0.1097 0.3571,0.1186 0.6425,0.2332 0.2754,0.1553 0.2544,0.1341 0.2472,0.1642 0.3359,0.3182 0.2908,0.3244 0.2524,0.3575 0.195,0.3983 0.1268,0.4435 0.0461,0.4819 -0.0425,0.5165 -0.1251,0.5372 -0.0965,0.3076 -0.1623,0.3518 -0.4572,0.5368 -0.4882,0.4196 -0.5371,0.3265 -0.5706,0.2261 -0.6001,0.1329 -0.6211,0.0322 -0.6328,-0.0611 -0.6336,-0.1526 -0.2916,-0.1031 -0.2674,-0.1532 -0.2649,-0.1429 -0.2774,-0.2027 -0.2342,-0.2071 -0.1914,-0.2115 -0.1947,-0.2615 -0.149,-0.2669 -0.0718,-0.1584 -0.0594,-0.1435 -0.0585,-0.1438 -0.0539,-0.1517 -0.0507,-0.1523 -0.045,-0.1642 -0.0374,-0.1699 -0.0946,-0.5855 2.257,-0.4624 0.1531,0.7041 0.1551,0.3283 0.2023,0.2885 0.2346,0.2222 0.2616,0.1496 0.2861,0.0739 0.3262,-0.0128 0.3712,-0.1183 0.4094,-0.2429 0.0755,-0.0796 0.0549,-0.0651 0.0663,-0.0991 0.0461,-0.0805 0.0638,-0.2058 0.0285,-0.1128 v -0.0174 l -0.0593,-0.2602 -0.0799,-0.204 -0.0957,-0.1495 -0.1171,-0.1223 -0.1551,-0.1127 -0.1992,-0.1156 -0.2455,-0.1213 -0.2677,-0.1273 -0.5218,-0.1934 -0.5423,-0.2164 -0.539,-0.2487 -0.5069,-0.3125 -0.458,-0.4001 -0.3703,-0.5196 -0.2422,-0.6438 -0.0813,-0.7819 0.0505,-0.3262 0.0957,-0.2673 0.0991,-0.2532 0.1542,-0.2925 0.1986,-0.2222 0.1851,-0.2 0.218,-0.1903 0.2358,-0.2071 0.3029,-0.1659 0.5488,-0.2059 0.5476,-0.134 0.5484,-0.0611 0.5487,0.0173 0.544,0.1021 0.5335,0.1843 0.521,0.276 0.5193,0.3709 0.1526,0.166 0.1842,0.1982 z m -27.2052,-1.04 v 8.9372 h -2.3411 v -8.977 z m 47.0588,-49.4463 h -6.3866 v 4.1688 h -2.2046 V 408.66 h 2.2046 v 3.8545 h 6.3866 V 408.66 h 2.2165 v 10.3162 h -2.2165 z m 20.6768,1.5188 0.003,0.004 0.1188,0.1313 0.0194,0.0125 0.1978,0.0553 0.21,0.1177 0.1603,0.0319 0.6042,0.0575 h 3.9171 l 0.7992,-0.0602 0.3775,-0.0478 0.009,-0.003 0.109,-0.0894 0.1959,-0.1216 0.0158,-0.0483 0.086,-0.1903 0.0505,-0.3159 0.0363,-0.1271 v -0.1903 l 0.0586,-0.4827 v -2.6142 l -0.0525,-0.6603 -0.0815,-0.3633 -0.0724,-0.1611 -0.0125,-0.0243 -0.0505,-0.0593 -0.0585,-0.062 -0.0355,-0.0255 -0.1152,-0.035 -0.1825,-0.0474 -0.2694,-0.0456 h -0.3279 l -0.4413,-0.0642 h -1.8487 l -1.8997,0.0642 h -0.6098 l -0.3997,0.0903 -0.1337,0.0522 -0.1656,0.0663 -0.1188,0.0426 -0.0169,0.0273 -0.0294,0.101 -0.0477,0.1562 -0.1054,0.4992 -0.0391,0.2311 v 0.3146 l -0.0522,1.3559 v 0.6271 l 0.0505,0.6974 0.0488,0.5953 0.0433,0.3554 0.0275,0.0574 z m -2.4722,-3.3319 0.0602,-0.775 0.0557,-0.6305 0.0738,-0.5709 0.1814,-0.5563 0.071,-0.2216 0.1826,-0.3834 0.3404,-0.37 0.2399,-0.2818 0.3643,-0.1845 0.3811,-0.1475 0.458,-0.1447 0.4963,-0.0632 0.6017,-0.0651 h 4.4628 l 0.7906,0.066 0.256,0.0526 h 0.3021 l 0.6203,0.1748 0.2217,0.1642 0.2302,0.1194 0.1934,0.1514 0.2871,0.1904 0.1684,0.3079 0.1151,0.1757 0.1543,0.2776 0.0779,0.242 0.187,0.535 0.0743,0.4302 v 0.3438 l 0.0525,0.7333 v 2.3168 l -0.0561,1.0966 -0.0627,0.366 -0.056,0.2593 -0.0674,0.3302 -0.0769,0.2699 -0.1481,0.3293 -0.1409,0.2176 -0.1312,0.2223 -0.1665,0.2079 -0.1942,0.097 -0.296,0.2176 -0.2577,0.1815 -0.3198,0.0894 -0.2411,0.0681 -0.2988,0.0699 -0.6203,0.132 h -0.8835 l -1.1704,0.0583 h -1.816 l -1.0322,-0.0592 -0.7676,-0.0611 -0.7035,-0.135 -0.3679,-0.0818 -0.296,-0.1563 -0.3243,-0.1778 -0.233,-0.2602 -0.1728,-0.1873 -0.2311,-0.2575 -0.2031,-0.4223 -0.0646,-0.3505 -0.1082,-0.3186 -0.0727,-0.5022 -0.0566,-0.4426 -0.0629,-0.5305 z m 32.8119,-2.0326 v 8.0145 H 279.74 v -8.0145 h -4.1329 V 408.66 h 10.4726 v 2.3017 z m 21.3921,0 v 1.5528 h 6.8632 v 2.2929 h -6.8632 v 1.8653 h 7.1955 v 2.3035 h -9.4129 V 408.66 h 9.3083 v 2.3017 z m 25.3477,5.711 h 6.4221 v 2.3035 h -8.6916 V 408.66 h 2.2695 z m 56.1481,27.3983 1.184,-0.5283 1.0572,-0.5421 0.8586,-0.4426 0.7304,-0.4925 0.3668,-0.2691 0.3287,-0.3085 0.3598,-0.3159 0.3307,-0.3107 0.3223,-0.3584 0.3255,-0.3524 0.3279,-0.4031 0.2815,-0.4466 -0.3207,-0.7575 -0.3279,-0.6254 -0.2863,-0.5837 -0.2835,-0.4438 -0.2843,-0.4475 -0.3287,-0.3527 -0.3227,-0.3164 -0.3262,-0.2673 -0.3279,-0.1787 -0.3215,-0.1797 -0.3695,-0.0881 h -0.3671 -0.4075 l -0.4094,0.1368 -0.1648,0.0447 -0.2011,0.0863 -0.156,0.0915 -0.1658,0.1292 -0.164,0.1408 -0.1639,0.1279 -0.1188,0.1779 -0.1656,0.1815 -0.1232,0.1787 -0.1151,0.2253 -0.2519,0.4487 -0.2044,0.4001 -0.1171,0.4438 -0.124,0.3971 -0.1207,0.445 -0.0824,0.498 -0.0432,0.4438 -0.04,0.4934 v 0.5302 0.4041 l 0.04,0.4031 0.0432,0.4 0.0824,0.3962 0.1207,0.4496 0.124,0.4448 0.1648,0.4456 z m 13.1119,1.1127 -0.2483,0.6721 -0.24,0.5865 -0.2826,0.6235 -0.2891,0.5341 -0.3235,0.5302 -0.162,0.2244 -0.1667,0.273 -0.3667,0.4399 -0.3607,0.4019 -0.4078,0.404 -0.3667,0.4031 -0.4078,0.3076 -0.4447,0.3606 -0.4078,0.2669 -0.2055,0.1389 -0.2481,0.1244 -0.4474,0.2727 -0.4478,0.2225 -0.4438,0.1776 -0.4891,0.1796 -0.4918,0.1371 -0.4866,0.1244 -0.4919,0.1009 -0.5229,0.0416 -0.5324,0.0399 H 388.14 l -0.8605,-0.0399 -0.4491,-0.0416 -0.4059,-0.0535 -0.4042,-0.0863 -0.4094,-0.0855 -0.366,-0.1371 -0.3623,-0.1359 -0.4077,-0.1292 -0.3304,-0.1824 -0.6869,-0.4049 -0.3687,-0.2216 -0.326,-0.2223 -0.2846,-0.2651 -0.3287,-0.265 -0.3207,-0.3603 -0.1651,-0.176 -0.124,-0.1338 -0.3207,-0.3614 -0.2446,-0.4019 -0.2516,-0.3536 -0.2411,-0.404 -0.2056,-0.4031 -0.1612,-0.3952 -0.1595,-0.4457 -0.1251,-0.4448 -0.1223,-0.4505 -0.116,-0.4448 -0.0424,-0.4943 -0.088,-0.4913 v -0.4876 l -0.038,-0.5311 0.038,-0.5001 v -0.5305 l 0.088,-0.4912 0.0752,-0.4886 0.0832,-0.4934 0.1223,-0.4426 0.164,-0.4974 0.1639,-0.4426 0.2039,-0.4934 0.2039,-0.4457 0.2453,-0.4438 0.241,-0.4041 0.5698,-0.8934 0.3227,-0.3943 0.3686,-0.405 0.3668,-0.4447 0.4086,-0.4041 0.4086,-0.3584 0.4067,-0.3505 0.4439,-0.3156 0.4103,-0.2739 0.4449,-0.2641 0.4492,-0.2639 0.4521,-0.1809 0.4447,-0.1776 0.4866,-0.1738 0.4458,-0.0952 0.4952,-0.1283 0.4841,-0.0514 0.4916,-0.0437 h 0.4849 0.6929 l 0.6079,0.0951 0.6574,0.1283 0.6062,0.1797 0.5709,0.2243 0.5714,0.2642 0.2447,0.1833 0.2871,0.1788 0.4847,0.3517 0.4882,0.4019 0.4519,0.4913 0.2056,0.2207 0.2022,0.2687 0.3607,0.5381 0.3287,0.5758 0.2818,0.6275 0.2905,0.6682 0.078,0.3165 0.1223,0.3526 -1.1793,0.8515 -1.465,0.9333 -1.6678,0.9808 -1.9202,1.1148 -0.5246,0.272 -0.6098,0.3129 -1.3044,0.5806 -1.4691,0.6187 -1.5855,0.6232 0.2472,0.3207 0.243,0.3098 0.5255,0.5311 0.2507,0.2234 0.2444,0.2262 0.2411,0.1757 0.2438,0.1806 0.404,0.2265 0.4494,0.2222 0.4926,0.1788 0.4467,0.128 0.4846,0.138 0.4919,0.0416 0.5265,0.0438 0.5335,0.0535 0.5689,-0.0535 0.5707,-0.0438 0.5662,-0.127 0.6133,-0.1368 0.5687,-0.2226 0.5734,-0.2222 0.6098,-0.3119 0.569,-0.3165 0.934,-0.6265 z m -19.5029,-0.8449 -0.2056,0.6236 -0.1603,0.5876 -0.2436,0.5728 -0.2039,0.5818 -0.2455,0.536 -0.2818,0.4943 -0.2888,0.4904 -0.281,0.4447 -0.1648,0.2226 -0.1631,0.2243 -0.3243,0.401 -0.3271,0.3961 -0.3659,0.3624 -0.4095,0.3545 -0.4047,0.3563 -0.4086,0.3146 -0.445,0.2721 -0.4882,0.263 -0.5343,0.269 -0.4838,0.1788 -0.5318,0.1796 -0.4838,0.1244 -0.5327,0.1009 -0.4882,0.0815 h -0.5315 l -0.7668,-0.0399 -0.6974,-0.0951 -0.3684,-0.0474 -0.359,-0.0788 -0.6982,-0.2252 -0.3246,-0.1371 -0.3251,-0.1289 -0.6478,-0.3615 -0.2916,-0.1824 -0.3226,-0.2216 -0.6078,-0.4436 -0.3296,-0.3088 -0.3218,-0.3603 -0.1647,-0.176 -0.1648,-0.1757 -0.281,-0.3651 -0.2908,-0.443 -0.241,-0.4447 -0.2436,-0.4497 -0.2455,-0.4864 -0.1631,-0.4903 -0.1657,-0.4886 -0.1631,-0.4982 -0.0771,-0.4883 -0.0816,-0.4906 -0.0823,-0.5321 -0.0397,-0.4934 v -0.5359 -0.5342 l 0.0397,-0.5381 0.0823,-0.4894 0.0428,-0.2651 0.0388,-0.2678 0.1232,-0.4907 0.117,-0.5399 0.1657,-0.4864 0.2039,-0.4478 0.2047,-0.4873 0.2436,-0.4448 0.241,-0.4943 0.2908,-0.4448 0.3226,-0.4022 0.3251,-0.4457 0.3715,-0.4487 0.4047,-0.404 0.5657,-0.532 0.2887,-0.2712 0.3207,-0.2669 0.2891,-0.2213 0.3223,-0.2253 0.3291,-0.2265 0.3259,-0.2204 0.3207,-0.1775 0.3695,-0.176 0.329,-0.1776 0.3224,-0.135 0.3678,-0.131 0.3679,-0.138 0.7285,-0.2234 0.2488,-0.0426 0.2827,-0.0429 0.6905,-0.0942 0.4066,-0.0447 0.4503,-0.0407 0.9729,-0.0417 0.6549,-0.0486 0.6087,-0.132 0.289,-0.0884 0.2436,-0.0934 0.4846,-0.2231 0.3299,-0.1778 0.3667,-0.2691 0.367,-0.2651 0.404,-0.3621 0.1223,0.674 0.0815,0.6232 0.0444,0.5837 v 0.5779 0.5342 l -0.0444,0.5341 -0.0416,0.4466 -0.0779,0.4469 -0.1251,0.4059 -0.1213,0.3523 -0.1603,0.3575 -0.2067,0.3116 -0.0779,0.1797 -0.164,0.1389 -0.3667,0.4001 -0.4494,0.3973 -0.5698,0.4904 -0.1656,-0.8421 -0.0772,-0.3651 -0.0851,-0.3496 -0.116,-0.3612 -0.1251,-0.2642 -0.1212,-0.266 -0.1631,-0.2748 -0.2419,-0.3107 -0.1277,-0.1353 -0.1231,-0.131 -0.157,-0.1359 -0.1648,-0.0836 -0.3296,-0.2262 -0.3218,-0.1368 -0.3659,-0.1313 -0.4058,-0.0447 h -0.4503 -0.4466 l -0.4544,0.0906 -0.2011,0.0407 -0.2431,0.0447 -0.2019,0.0952 -0.2064,0.0824 -0.3679,0.2243 -0.405,0.2709 -0.3623,0.3119 -0.329,0.3545 -0.4058,0.4903 -0.1657,0.27 -0.2027,0.2699 -0.1188,0.3059 -0.1614,0.269 -0.1285,0.3177 -0.1151,0.3086 -0.1659,0.6265 -0.084,0.3594 -0.0799,0.3097 -0.0397,0.3563 -0.0391,0.3563 v 0.3606 0.401 0.6633 l 0.0788,0.674 0.0374,0.3125 0.0893,0.3089 0.0772,0.3146 0.0787,0.3129 0.1243,0.3085 0.1221,0.3147 0.1223,0.2681 0.1251,0.308 0.3199,0.5435 0.2028,0.2633 0.1631,0.2672 0.4486,0.4883 0.4519,0.4459 0.2452,0.2262 0.243,0.1757 0.2411,0.139 0.2888,0.131 0.2435,0.1371 0.2847,0.1338 0.2871,0.0884 0.2843,0.0836 0.2827,0.0514 0.2891,0.0438 0.6131,0.0438 0.5229,-0.0438 0.5307,-0.0438 0.5273,-0.0912 0.5318,-0.1322 0.5299,-0.1338 0.5262,-0.2265 0.531,-0.2222 0.5263,-0.2651 0.3298,-0.1818 0.3224,-0.2222 0.3661,-0.2682 0.3668,-0.266 0.3687,-0.3168 0.3234,-0.3049 0.4067,-0.3639 z m -25.8501,-2.7239 -0.4874,0.0961 -0.4938,0.1292 -0.443,0.138 -0.4458,0.1815 -0.4075,0.1748 -0.4059,0.1757 -0.3703,0.2235 -0.3235,0.2234 -0.4918,0.4041 -0.2039,0.1815 -0.202,0.2194 -0.3243,0.4457 -0.1614,0.2244 -0.1276,0.2222 -0.1168,0.2672 -0.1224,0.2223 -0.1692,0.5341 -0.0754,0.5399 -0.0416,0.2642 v 0.2672 0.4019 l 0.0807,0.3119 0.0363,0.3594 0.1301,0.3076 0.1143,0.2739 0.164,0.3098 0.1667,0.2669 0.2039,0.2226 0.2427,0.2204 0.2403,0.1854 0.2904,0.1797 0.281,0.1252 0.1276,0.0505 0.1612,0.0459 0.2846,0.0833 0.3207,0.0468 h 0.3288 0.2419 0.289 l 0.2472,-0.0857 0.2791,-0.0444 0.5726,-0.2216 0.2843,-0.1417 0.3262,-0.1292 z m 7.37,10.895 h -6.2711 l -0.2067,-0.269 -0.202,-0.2222 -0.1567,-0.2244 -0.1259,-0.27 -0.2028,-0.4934 -0.2048,-0.67 -0.6513,0.5439 -0.6938,0.4864 -0.3227,0.2234 -0.3306,0.2223 -0.3199,0.1818 -0.3651,0.1726 -0.6522,0.2213 -0.2002,0.0973 -0.1676,0.0399 -0.3312,0.0863 -0.3626,0.0535 -0.3243,0.0416 -0.6921,0.0399 h -0.5699 l -0.5342,-0.0815 -0.523,-0.1009 -0.2463,-0.0389 -0.248,-0.0855 -0.2411,-0.0517 -0.2419,-0.0854 -0.4494,-0.2213 -0.4059,-0.2262 -0.4083,-0.3058 -0.2031,-0.1827 -0.2047,-0.1797 -0.2028,-0.1806 -0.1631,-0.1796 -0.1659,-0.2204 -0.162,-0.2235 -0.2447,-0.4429 -0.0779,-0.2727 -0.124,-0.2225 -0.1215,-0.5321 -0.0433,-0.2672 -0.0408,-0.266 -0.0355,-0.3177 v -0.2638 -0.3594 l 0.0355,-0.3535 0.0408,-0.3147 0.0876,-0.3128 0.0772,-0.3116 0.0832,-0.3147 0.1187,-0.2651 0.1268,-0.3079 0.1639,-0.2748 0.1579,-0.2679 0.2036,-0.2654 0.2047,-0.2669 0.2419,-0.266 0.2048,-0.2204 0.2871,-0.2225 0.2818,-0.2253 0.3679,-0.3165 0.3695,-0.2663 0.4059,-0.2252 0.4083,-0.2214 0.4458,-0.2234 0.4067,-0.1806 0.4466,-0.1787 0.4478,-0.1292 0.4519,-0.1368 0.4874,-0.1302 0.483,-0.0933 0.4988,-0.0872 0.4821,-0.0447 0.5326,-0.0429 1.0589,-0.0465 h 0.6078 l 0.8544,0.0465 v -2.4062 -0.4943 l -0.0391,-0.4448 -0.0399,-0.4022 -0.0441,-0.4049 -0.0808,-0.3107 -0.0807,-0.3147 -0.0815,-0.2243 -0.1213,-0.2213 -0.1639,-0.2673 -0.2031,-0.2231 -0.2411,-0.176 -0.2064,-0.1785 -0.2471,-0.0924 -0.2846,-0.0863 -0.28,-0.0903 h -0.2915 -0.2411 l -0.2436,0.0435 -0.2438,0.0942 -0.2436,0.0836 -0.2463,0.1359 -0.2067,0.1797 -0.2427,0.1757 -0.202,0.2216 -0.3678,0.4961 -0.4847,0.6701 -0.4078,0.5739 -0.3695,0.4469 -0.3659,0.3612 -0.1195,0.128 -0.1657,0.0942 -0.3653,0.2265 -0.326,0.1775 -0.365,0.0867 -0.3299,0.0407 -0.2799,-0.0407 h -0.1656 l -0.1259,-0.0429 -0.28,-0.097 -0.2438,-0.172 -0.2444,-0.1788 -0.2475,-0.2222 -0.2027,-0.2691 -0.2039,-0.3146 -0.2436,-0.404 -0.2039,-0.3943 -0.1595,-0.405 -0.1232,-0.4447 -0.0807,-0.4439 -0.0832,-0.4067 -0.038,-0.4478 -0.0392,-0.4457 0.0392,-0.4457 v -0.3992 l 0.3251,0.2214 0.3634,0.1778 0.3684,0.1833 0.3262,0.0836 0.3626,0.138 0.1629,0.0408 h 0.1658 l 0.326,0.0416 0.3634,0.0505 0.4519,-0.0505 0.4874,-0.0824 0.6089,-0.138 0.6511,-0.1775 0.6081,-0.176 0.6123,-0.135 1.1032,-0.2262 0.4891,-0.0824 0.483,-0.0428 0.4511,-0.0535 h 0.4485 0.5263 l 0.5318,0.0535 0.5723,0.0845 0.4866,0.0893 0.5309,0.135 0.5254,0.1776 0.4944,0.2216 0.4857,0.2271 0.2819,0.1252 0.2904,0.1818 0.4822,0.3135 0.2463,0.1778 0.2031,0.1788 0.2036,0.2234 0.2014,0.1833 0.1648,0.2226 0.1664,0.2213 0.1188,0.1796 0.1623,0.2235 0.2047,0.4903 0.1639,0.4865 0.0364,0.2243 0.0408,0.2235 0.0468,0.6262 0.04,0.404 v 0.3952 0.9868 6.2443 l 0.0408,1.1613 v 0.9355 l 0.0388,0.401 0.0372,0.3553 0.046,0.27 0.0408,0.2709 0.0771,0.3517 0.164,0.4019 0.1667,0.3624 0.1631,0.3484 0.2436,0.3207 0.2419,0.3058 0.281,0.3116 z m -20.9648,-28.4264 v 23.5164 0.9798 l 0.0427,0.844 0.0355,0.3195 v 0.3116 l 0.0389,0.2216 0.0416,0.1797 0.1232,0.3097 0.1259,0.2214 0.1567,0.2243 0.1648,0.1797 0.2439,0.1331 0.086,0.0903 0.1595,0.0426 0.2471,0.0477 h 0.3199 v 0.805 h -9.318 v -0.805 h 0.281 l 0.2897,-0.0477 0.2446,-0.0426 0.2012,-0.1398 0.2038,-0.0836 0.2048,-0.138 0.1612,-0.1767 0.1204,-0.1717 0.1267,-0.2265 0.0391,-0.0943 0.0364,-0.1766 0.0868,-0.3137 0.04,-0.4019 0.076,-0.9342 0.0408,-0.574 v -0.5837 -16.0631 -0.7159 l -0.0408,-0.6235 -0.0389,-0.4922 -0.0371,-0.404 -0.04,-0.1718 -0.0868,-0.2225 -0.0364,-0.1788 -0.1295,-0.2253 -0.0744,-0.1796 -0.1656,-0.1329 -0.1206,-0.1748 -0.1621,-0.138 -0.3686,-0.2633 -0.2031,-0.1386 -0.2028,-0.1301 -0.2427,-0.0943 -0.2455,-0.0866 -0.531,-0.1784 0.3679,-0.3089 0.3659,-0.2721 0.451,-0.269 0.4051,-0.267 0.4494,-0.2243 0.4818,-0.266 0.4938,-0.1797 0.4863,-0.2225 0.6497,-0.2223 0.6087,-0.1787 0.6125,-0.1776 0.5706,-0.0905 0.5768,-0.1311 0.5257,-0.0465 0.529,-0.0465 z m -15.4732,17.5314 -0.4866,0.0961 -0.4927,0.1292 -0.4466,0.138 -0.4447,0.1815 -0.4069,0.1748 -0.4067,0.1757 -0.3704,0.2235 -0.367,0.2234 -0.4508,0.4041 -0.2022,0.1815 -0.2011,0.2194 -0.366,0.4457 -0.1187,0.2244 -0.1667,0.2222 -0.1232,0.2672 -0.0788,0.2223 -0.1675,0.5341 -0.0744,0.5399 -0.0407,0.2642 v 0.2672 0.4019 l 0.0407,0.3119 0.0744,0.3594 0.0868,0.3076 0.1595,0.2739 0.1232,0.3098 0.2047,0.2669 0.202,0.2226 0.2447,0.2204 0.2427,0.1854 0.2891,0.1797 0.2826,0.1252 0.1257,0.0505 0.1587,0.0459 0.2863,0.0833 0.3259,0.0468 h 0.3246 0.2436 0.2419 l 0.2915,-0.0857 0.2791,-0.0444 0.5734,-0.2216 0.2819,-0.1417 0.3287,-0.1292 z m 7.3675,10.895 h -6.2695 l -0.2039,-0.269 -0.2028,-0.2222 -0.1587,-0.2244 -0.1267,-0.27 -0.2028,-0.4934 -0.2031,-0.67 -0.6494,0.5439 -0.6974,0.4864 -0.321,0.2234 -0.3287,0.2223 -0.3634,0.1818 -0.3243,0.1726 -0.6955,0.2213 -0.1615,0.0973 -0.162,0.0399 -0.3714,0.0863 -0.3215,0.0535 -0.3643,0.0416 -0.6966,0.0399 h -0.5254 l -0.5734,-0.0815 -0.483,-0.1009 -0.2915,-0.0389 -0.2428,-0.0855 -0.203,-0.0517 -0.2411,-0.0854 -0.4491,-0.2213 -0.4087,-0.2262 -0.4041,-0.3058 -0.2464,-0.1827 -0.2064,-0.1797 -0.1587,-0.1806 -0.1647,-0.1796 -0.1665,-0.2204 -0.1614,-0.2235 -0.2444,-0.4429 -0.1199,-0.2727 -0.0849,-0.2225 -0.1154,-0.5321 -0.0485,-0.2672 -0.0408,-0.266 -0.0363,-0.3177 v -0.2638 -0.3594 l 0.0363,-0.3535 0.0408,-0.3147 0.0904,-0.3128 0.0372,-0.3116 0.1212,-0.3147 0.1199,-0.2651 0.1231,-0.3079 0.1648,-0.2748 0.1631,-0.2679 0.2,-0.2654 0.2059,-0.2669 0.2003,-0.266 0.248,-0.2204 0.2854,-0.2225 0.2444,-0.2253 0.4059,-0.3165 0.3695,-0.2663 0.407,-0.2252 0.4066,-0.2214 0.4095,-0.2234 0.443,-0.1806 0.4447,-0.1787 0.4494,-0.1292 0.4536,-0.1368 0.483,-0.1302 0.4458,-0.0933 0.5334,-0.0872 0.4866,-0.0447 0.5327,-0.0429 1.0588,-0.0465 h 0.609 l 0.8541,0.0465 v -2.4062 -0.4943 l -0.038,-0.4448 -0.0427,-0.4022 -0.0433,-0.4049 -0.0816,-0.3107 -0.0779,-0.3147 -0.0852,-0.2243 -0.1179,-0.2213 -0.2036,-0.2673 -0.2047,-0.2231 -0.2031,-0.176 -0.2488,-0.1785 -0.2455,-0.0924 -0.2419,-0.0863 -0.2794,-0.0903 h -0.2904 -0.2802 l -0.2464,0.0435 -0.2463,0.0942 -0.2028,0.0836 -0.2447,0.1359 -0.248,0.1797 -0.2022,0.1757 -0.2011,0.2216 -0.4067,0.4961 -0.4874,0.6701 -0.4051,0.5739 -0.3686,0.4469 -0.3279,0.3612 -0.1576,0.128 -0.1268,0.0942 -0.3678,0.2265 -0.3687,0.1775 -0.3179,0.0867 -0.3299,0.0407 -0.3215,-0.0407 h -0.1251 l -0.1656,-0.0429 -0.2403,-0.097 -0.2843,-0.172 -0.2455,-0.1788 -0.2031,-0.2222 -0.2452,-0.2691 -0.2059,-0.3146 -0.2,-0.404 -0.2066,-0.3943 -0.1587,-0.405 -0.124,-0.4447 -0.1249,-0.4439 -0.0416,-0.4067 -0.0735,-0.4478 v -0.4457 l 0.0372,-0.4457 v -0.3992 l 0.3268,0.2214 0.3653,0.1778 0.3252,0.1833 0.3686,0.0836 0.3227,0.138 0.162,0.0408 h 0.2055 l 0.3263,0.0416 0.3207,0.0505 0.4494,-0.0505 0.5315,-0.0824 0.6089,-0.138 0.6494,-0.1775 0.6098,-0.176 0.6142,-0.135 1.1041,-0.2262 0.4857,-0.0824 0.4847,-0.0428 0.451,-0.0535 h 0.4023 0.5706 l 0.5346,0.0535 0.5254,0.0845 0.5299,0.0893 0.5326,0.135 0.4874,0.1776 0.5315,0.2216 0.4866,0.2271 0.2819,0.1252 0.2879,0.1818 0.4849,0.3135 0.2428,0.1778 0.2055,0.1788 0.202,0.2234 0.1639,0.1833 0.2039,0.2226 0.1648,0.2213 0.1232,0.1796 0.1204,0.2235 0.2446,0.4903 0.1224,0.4865 0.0416,0.2243 0.038,0.2235 0.086,0.6262 v 0.404 l 0.0399,0.3952 v 0.9868 6.2443 1.1613 l 0.0381,0.9355 0.0382,0.401 0.0425,0.3553 v 0.27 l 0.0843,0.2709 0.078,0.3517 0.1248,0.4019 0.1648,0.3624 0.2022,0.3484 0.2436,0.3207 0.2438,0.3058 0.2827,0.3116 z m -43.1145,-23.6964 v -0.4903 l 0.5318,-0.4457 0.5734,-0.4019 0.5246,-0.4004 0.4918,-0.3554 0.5227,-0.3146 0.4938,-0.269 0.4499,-0.267 0.4858,-0.2243 0.4067,-0.1766 0.4449,-0.1739 0.4556,-0.1797 0.4846,-0.138 0.4838,-0.1776 0.4927,-0.0866 0.9784,-0.2232 0.5246,-0.0912 0.5343,-0.0905 1.0952,-0.1311 1.1441,-0.093 h 1.1326 1.0589 l 0.5326,0.0465 0.4875,0.0465 0.9792,0.0894 0.9393,0.1806 0.4447,0.0854 0.4486,0.0924 0.8109,0.2679 0.4092,0.1282 0.4069,0.1381 0.4067,0.1824 0.3704,0.1757 0.7276,0.3526 0.3268,0.1806 0.3279,0.2253 0.3226,0.2234 0.3288,0.2651 0.6097,0.4876 0.5726,0.5418 0.2444,0.3089 0.2427,0.3097 0.4874,0.6236 0.4486,0.67 0.2036,0.4466 0.2048,0.4478 0.2055,0.4417 0.1154,0.4955 0.1285,0.4922 0.0763,0.4934 0.0424,0.4886 v 0.532 l -0.0424,0.7156 -0.0383,0.4013 -0.038,0.3146 -0.0869,0.3533 -0.0779,0.3615 -0.0791,0.3058 -0.1256,0.3602 -0.164,0.3119 -0.1207,0.3147 -0.2036,0.3086 -0.1614,0.3128 -0.2037,0.2699 -0.2022,0.3116 -0.4963,0.5837 -0.2799,0.2673 -0.3279,0.265 -0.2855,0.267 -0.3267,0.2672 -0.3218,0.2183 -0.3288,0.1796 -0.3226,0.1827 -0.3623,0.1815 -0.3332,0.1301 -0.365,0.1341 -0.2023,0.0438 -0.2036,0.0456 -0.367,0.0894 -0.3634,0.0872 -0.4103,0.0447 -0.8134,0.0456 -0.7346,-0.0456 -0.3218,-0.0447 -0.3295,-0.0425 -0.3227,-0.0447 -0.3279,-0.0894 -0.3243,-0.0894 -0.2843,-0.0863 -0.2855,-0.1359 -0.2879,-0.1362 -0.281,-0.1289 -0.2419,-0.1809 -0.2933,-0.1797 -0.2402,-0.1784 -0.2436,-0.2244 -0.203,-0.2225 -0.164,-0.131 -0.1648,-0.2213 -0.1595,-0.2235 -0.1612,-0.269 -0.3686,-0.6254 -0.445,-0.7633 0.5637,0.3602 0.2907,0.1371 0.2799,0.1292 0.2871,0.0921 0.2844,0.0447 0.281,0.0426 h 0.2932 0.483 l 0.4486,-0.0873 0.4536,-0.0921 0.405,-0.1292 0.1587,-0.0933 0.2027,-0.0836 0.3671,-0.2253 0.1656,-0.1398 0.203,-0.128 0.2827,-0.3147 0.3288,-0.3535 0.2419,-0.3624 0.1267,-0.2213 0.0752,-0.1815 0.1667,-0.4411 0.0772,-0.2262 0.0876,-0.2213 0.0755,-0.4518 0.0424,-0.2641 0.0433,-0.2232 v -0.5302 -0.404 l -0.0433,-0.4448 -0.0424,-0.3614 -0.0755,-0.3943 -0.0876,-0.4019 -0.1179,-0.3633 -0.126,-0.3536 -0.1639,-0.3572 -0.1576,-0.3088 -0.2056,-0.3603 -0.2003,-0.3116 -0.2491,-0.3159 -0.2463,-0.3107 -0.2391,-0.3125 -0.6126,-0.5362 -0.6086,-0.4895 -0.3279,-0.2231 -0.3243,-0.1779 -0.648,-0.3584 -0.6963,-0.3125 -0.3227,-0.0867 -0.3659,-0.1368 -0.3687,-0.0863 -0.3678,-0.0438 -0.3634,-0.0495 -0.3668,-0.0447 -0.7753,-0.0389 h -0.5743 l -0.5689,0.0389 -0.5255,0.0447 -0.5717,0.0933 -0.5279,0.0863 -0.5249,0.0894 -0.5359,0.1341 -0.485,0.1368 -0.3276,0.0854 -0.3687,0.1389 -0.7709,0.3527 -0.9756,0.4028 -1.1,0.4885 0.8969,-0.2222 0.8497,-0.176 0.8161,-0.1797 0.8145,-0.1337 0.7773,-0.0858 0.7718,-0.0939 0.7718,-0.0429 h 0.7337 0.6125 l 0.7743,0.0429 0.8553,0.0939 1.0156,0.1292 -0.1648,0.4886 -0.1623,0.4973 -0.0796,0.4873 -0.1243,0.4478 -0.0796,0.7117 -0.0799,0.8935 -0.0469,1.0303 v 1.1576 13.2927 1.8259 l 0.0877,1.5614 0.0391,0.4496 0.0388,0.1815 0.0843,0.176 0.0808,0.1766 0.1195,0.1766 0.0833,0.1399 0.1647,0.1274 0.2794,0.2748 0.4111,0.2243 0.4467,0.1739 0.4918,0.1329 v 0.8527 h -11.4829 v -0.8527 l 0.4092,-0.0426 0.4058,-0.0903 0.3227,-0.0902 0.3315,-0.1809 0.2782,-0.1767 0.2436,-0.1717 0.1259,-0.139 0.126,-0.1349 0.0779,-0.1301 0.0796,-0.1399 0.0852,-0.1301 0.0388,-0.1371 0.0808,-0.3505 0.038,-0.4953 0.0427,-0.5779 v -2.2277 -0.4059 -11.5066 -1.0732 -0.8518 l -0.0427,-0.6679 -0.038,-0.4469 -0.1196,-0.4487 -0.0391,-0.1785 -0.0461,-0.2216 -0.1575,-0.3088 -0.1659,-0.3068 -0.2011,-0.2779 -0.2472,-0.2213 -0.1215,-0.0854 -0.1249,-0.0863 -0.2818,-0.0924 -0.5751,-0.1855 -0.686,-0.1262 -0.8162,-0.0902 -0.4483,-0.0469 z m -12.0491,-4.73 v 23.5164 0.9798 l 0.0444,0.844 0.038,0.3195 0.038,0.3116 0.0363,0.2216 0.048,0.1797 0.0824,0.3097 0.1248,0.2214 0.1551,0.2243 0.2075,0.1797 0.2039,0.1331 0.1221,0.0903 0.1207,0.0426 0.2455,0.0477 h 0.3215 v 0.805 h -9.3188 v -0.805 h 0.2827 l 0.2879,-0.0477 0.2455,-0.0426 0.2047,-0.1398 0.202,-0.0836 0.2039,-0.138 0.1603,-0.1767 0.1623,-0.1717 0.0841,-0.2265 0.0391,-0.0943 0.0388,-0.1766 0.0824,-0.3137 0.0408,-0.4019 0.078,-0.9342 0.0407,-0.574 v -0.5837 -16.0631 -0.7159 l -0.0407,-0.6235 v -0.4922 l -0.078,-0.404 -0.0408,-0.1718 -0.0452,-0.2225 -0.076,-0.1788 -0.1232,-0.2253 -0.0799,-0.1796 -0.1248,-0.1329 -0.1587,-0.1748 -0.1631,-0.138 -0.3676,-0.2633 -0.203,-0.1386 -0.2028,-0.1301 -0.2439,-0.0943 -0.2435,-0.0866 -0.5327,-0.1784 0.3687,-0.3089 0.4075,-0.2721 0.4078,-0.269 0.4075,-0.267 0.445,-0.2243 0.4827,-0.266 0.4955,-0.1797 0.4846,-0.2225 0.6489,-0.2223 0.615,-0.1787 0.6061,-0.1776 0.5723,-0.0905 0.5718,-0.1311 0.5271,-0.0465 0.5318,-0.0465 z m -15.4699,17.5314 -0.4863,0.0961 -0.4954,0.1292 -0.4431,0.138 -0.4474,0.1815 -0.4051,0.1748 -0.4077,0.1757 -0.3696,0.2235 -0.3243,0.2234 -0.4918,0.4041 -0.2036,0.1815 -0.2014,0.2194 -0.3676,0.4457 -0.1179,0.2244 -0.1648,0.2222 -0.0779,0.2672 -0.1268,0.2223 -0.1659,0.5341 -0.076,0.5399 -0.0391,0.2642 v 0.2672 0.4019 l 0.0391,0.3119 0.076,0.3594 0.1295,0.3076 0.116,0.2739 0.1631,0.3098 0.1656,0.2669 0.2031,0.2226 0.2436,0.2204 0.2438,0.1854 0.288,0.1797 0.2818,0.1252 0.1257,0.0505 0.1614,0.0459 0.2844,0.0833 0.3235,0.0468 h 0.327 0.2411 0.2896 l 0.2455,-0.0857 0.2783,-0.0444 0.5734,-0.2216 0.2863,-0.1417 0.3259,-0.1292 z m 7.3686,10.895 h -6.2706 l -0.2055,-0.269 -0.202,-0.2222 -0.1623,-0.2244 -0.1223,-0.27 -0.202,-0.4934 -0.2039,-0.67 -0.6502,0.5439 -0.6966,0.4864 -0.3226,0.2234 -0.3296,0.2223 -0.3199,0.1818 -0.3661,0.1726 -0.6514,0.2213 -0.202,0.0973 -0.1647,0.0399 -0.3288,0.0863 -0.3651,0.0535 -0.3254,0.0416 -0.6893,0.0399 h -0.5715 l -0.5717,-0.0815 -0.4883,-0.1009 -0.2463,-0.0389 -0.2455,-0.0855 -0.2428,-0.0517 -0.2391,-0.0854 -0.4502,-0.2213 -0.4076,-0.2262 -0.4033,-0.3058 -0.2047,-0.1827 -0.2056,-0.1797 -0.2039,-0.1806 -0.1628,-0.1796 -0.1668,-0.2204 -0.1639,-0.2235 -0.2436,-0.4429 -0.0746,-0.2727 -0.1285,-0.2225 -0.1215,-0.5321 -0.0405,-0.2672 -0.0391,-0.266 -0.0399,-0.3177 v -0.2638 -0.3594 l 0.0399,-0.3535 0.0391,-0.3147 0.0849,-0.3128 0.0771,-0.3116 0.0844,-0.3147 0.1187,-0.2651 0.1285,-0.3079 0.1603,-0.2748 0.1603,-0.2679 0.2031,-0.2654 0.2036,-0.2669 0.2031,-0.266 0.2455,-0.2204 0.2896,-0.2225 0.2794,-0.2253 0.3695,-0.3165 0.3695,-0.2663 0.4059,-0.2252 0.4066,-0.2214 0.4087,-0.2234 0.4438,-0.1806 0.4483,-0.1787 0.4433,-0.1292 0.4564,-0.1368 0.4846,-0.1302 0.4874,-0.0933 0.4935,-0.0872 0.4838,-0.0447 0.5327,-0.0429 1.058,-0.0465 h 0.6134 l 0.8505,0.0465 v -2.4062 -0.4943 l -0.0388,-0.4448 -0.0408,-0.4022 -0.0452,-0.4049 -0.0799,-0.3107 -0.078,-0.3147 -0.0868,-0.2243 -0.1168,-0.2213 -0.1639,-0.2673 -0.2003,-0.2231 -0.2483,-0.176 -0.202,-0.1785 -0.2471,-0.0924 -0.2863,-0.0863 -0.2791,-0.0903 h -0.2924 -0.243 l -0.2419,0.0435 -0.2444,0.0942 -0.2439,0.0836 -0.2471,0.1359 -0.2056,0.1797 -0.2427,0.1757 -0.2014,0.2216 -0.3676,0.4961 -0.5238,0.6701 -0.3686,0.5739 -0.3679,0.4469 -0.3687,0.3612 -0.1559,0.128 -0.1267,0.0942 -0.3684,0.2265 -0.3662,0.1775 -0.3215,0.0867 -0.3324,0.0407 -0.2766,-0.0407 h -0.1664 l -0.1251,-0.0429 -0.2844,-0.097 -0.2802,-0.172 -0.2488,-0.1788 -0.2047,-0.2222 -0.2439,-0.2691 -0.2036,-0.3146 -0.2031,-0.404 -0.2055,-0.3943 -0.1579,-0.405 -0.1212,-0.4447 -0.0832,-0.4439 -0.0844,-0.4067 -0.038,-0.4478 -0.0391,-0.4457 0.0391,-0.4457 v -0.3992 l 0.3268,0.2214 0.3634,0.1778 0.3288,0.1833 0.3687,0.0836 0.3181,0.138 0.2056,0.0408 h 0.1631 l 0.3288,0.0416 0.3606,0.0505 0.4555,-0.0505 0.4858,-0.0824 0.6103,-0.138 0.6513,-0.1775 0.607,-0.176 0.6134,-0.135 1.1024,-0.2262 0.4866,-0.0824 0.4863,-0.0428 0.4502,-0.0535 h 0.4483 0.5238 l 0.5354,0.0535 0.5254,0.0845 0.5307,0.0893 0.5345,0.135 0.5227,0.1776 0.4938,0.2216 0.4846,0.2271 0.2819,0.1252 0.2896,0.1818 0.4849,0.3135 0.248,0.1778 0.1995,0.1788 0.2064,0.2234 0.2019,0.1833 0.1631,0.2226 0.1676,0.2213 0.1179,0.1796 0.1212,0.2235 0.2455,0.4903 0.1632,0.4865 0.038,0.2243 0.0427,0.2235 0.0433,0.6262 0.0407,0.404 v 0.3952 0.9868 6.2443 1.1613 l 0.0392,0.9355 0.0399,0.401 0.0397,0.3553 0.046,0.27 0.04,0.2709 0.0754,0.3517 0.1648,0.4019 0.1656,0.3624 0.164,0.3484 0.2427,0.3207 0.243,0.3058 0.2819,0.3116 z m -27.0324,-19.6807 v 3.9311 l 0.6495,-0.8497 0.6114,-0.7138 0.3287,-0.3156 0.2794,-0.269 0.5767,-0.4865 0.4042,-0.3155 0.4103,-0.2672 0.4042,-0.2214 0.4083,-0.1738 0.445,-0.1368 0.4067,-0.1381 0.4494,-0.0437 h 0.4447 0.3279 l 0.3287,0.0437 0.2827,0.0952 0.2827,0.0845 0.2899,0.138 0.2799,0.1776 0.2899,0.2204 0.2419,0.2216 0.2827,0.3155 0.2446,0.2642 0.2056,0.3603 0.0849,0.131 0.0746,0.1788 0.1285,0.3593 0.0779,0.1748 0.0372,0.1359 0.0452,0.4049 v 0.3536 0.3563 l -0.0452,0.3098 -0.0771,0.3204 -0.0808,0.2633 -0.1603,0.3097 -0.1665,0.2691 -0.1631,0.2262 -0.2438,0.2252 -0.3268,0.2673 -0.2039,0.1279 -0.1579,0.0934 -0.162,0.0437 -0.2055,0.0408 -0.2031,0.0465 h -0.1639 -0.2436 l -0.2447,-0.0873 -0.124,-0.0437 -0.1667,-0.0934 -0.2408,-0.1279 -0.2846,-0.2235 -0.2852,-0.269 -0.2838,-0.3165 -0.2888,-0.3536 -0.2427,-0.3146 -0.2838,-0.2681 -0.2852,-0.2214 -0.288,-0.2243 -0.2782,-0.1341 -0.2935,-0.0881 -0.3207,-0.0885 h -0.2871 -0.2835 l -0.2835,0.0885 -0.3235,0.0446 -0.2899,0.1368 -0.3251,0.1779 -0.3263,0.1727 -0.365,0.2243 -0.3252,0.273 v 9.948 0.6254 l 0.0389,0.5779 v 0.4894 l 0.0835,0.4506 0.0396,0.3973 0.078,0.3156 0.0419,0.1279 0.0433,0.1399 0.0424,0.0857 0.0408,0.0952 0.1614,0.1717 0.1657,0.1767 0.1578,0.138 0.2047,0.0836 0.2436,0.1398 0.248,0.0426 0.2794,0.0477 h 0.2887 v 0.805 h -9.5659 v -0.805 h 0.2807 l 0.2447,-0.0477 0.2471,-0.0426 0.2056,-0.1398 0.2039,-0.0836 0.1587,-0.138 0.1603,-0.1767 0.1268,-0.1717 0.0788,-0.2265 0.0824,-0.2709 0.0832,-0.3137 0.0372,-0.4019 0.0815,-0.9342 0.0436,-0.574 v -0.5837 -7.629 -0.5828 l -0.0436,-0.5329 -0.0407,-0.4031 -0.0408,-0.3554 -0.0788,-0.3156 -0.0832,-0.3061 -0.1587,-0.2253 -0.1648,-0.2204 -0.2003,-0.2253 -0.2055,-0.1814 -0.2888,-0.0885 -0.1199,-0.0912 -0.162,-0.0438 -0.2455,-0.0438 -0.3271,-0.0416 -1.0189,-0.1788 0.3684,-0.266 0.3698,-0.3204 0.4059,-0.2651 0.4075,-0.2663 0.4474,-0.2195 0.4858,-0.2262 0.4899,-0.2222 0.5274,-0.2235 1.1032,-0.4049 1.2192,-0.3526 0.6534,-0.1359 0.6477,-0.1797 z m -11.0717,0 v 14.7707 l 0.0371,1.1577 0.0391,0.9342 0.0397,0.363 0.0461,0.3526 0.079,0.2709 0.04,0.2265 0.1265,0.1717 0.117,0.1767 0.0444,0.0972 0.078,0.0408 0.1656,0.1331 0.1631,0.0903 0.1595,0.0426 0.2028,0.0477 h 0.1651 v 0.805 h -8.9122 v -0.805 h 0.2428 l 0.2028,-0.0477 0.2055,-0.0426 0.2048,-0.1398 0.1631,-0.0836 0.1578,-0.138 0.1213,-0.1767 0.1267,-0.1717 0.1179,-0.3624 0.0852,-0.1815 0.0388,-0.2204 0.04,-0.2265 v -0.2222 l 0.0399,-0.4885 0.0389,-1.6034 v -7.629 l -0.0389,-1.0303 -0.0399,-0.3973 -0.04,-0.3165 v -0.1301 l -0.0388,-0.1788 -0.0852,-0.1368 -0.0796,-0.1292 -0.2031,-0.273 -0.1259,-0.1292 -0.1612,-0.1398 -0.3626,-0.2195 -0.4083,-0.1797 -0.5335,-0.1766 -0.5698,-0.135 1.0617,-0.6691 0.8957,-0.5819 0.7294,-0.4447 0.6105,-0.3542 0.4927,-0.2235 0.5246,-0.2216 0.5326,-0.1833 0.6115,-0.2216 0.6488,-0.1776 0.6919,-0.1738 0.7329,-0.1797 z m -2.6471,-8.4757 0.3262,0.0446 0.2827,0.0484 0.2808,0.0854 0.2898,0.0924 0.2819,0.1748 0.2444,0.1776 0.2475,0.2225 0.2463,0.2691 0.1587,0.2213 0.1628,0.269 0.126,0.2709 0.1159,0.269 0.0896,0.2651 0.0755,0.3116 0.0396,0.2703 v 0.3086 l -0.0396,0.3614 -0.04,0.3524 -0.079,0.3155 -0.0858,0.311 -0.1631,0.2679 -0.1603,0.3137 -0.2003,0.2681 -0.2463,0.266 -0.2031,0.1797 -0.2489,0.1775 -0.2402,0.1323 -0.2447,0.1368 -0.2427,0.0845 -0.2455,0.0942 h -0.2871 l -0.2808,0.0429 -0.289,-0.0429 -0.3252,-0.0523 -0.2863,-0.0419 -0.2446,-0.128 -0.2791,-0.1371 -0.2447,-0.1806 -0.1248,-0.0854 -0.1232,-0.0924 -0.2019,-0.2232 -0.2076,-0.269 -0.2047,-0.2642 -0.1151,-0.2651 -0.1284,-0.269 -0.1152,-0.3165 -0.0471,-0.3089 -0.0389,-0.3146 -0.0399,-0.3128 0.0399,-0.3545 0.0389,-0.3581 0.0887,-0.3098 0.1152,-0.3168 0.1259,-0.2651 0.164,-0.3107 0.2044,-0.2708 0.2422,-0.2691 0.2028,-0.1788 0.2419,-0.1748 0.2427,-0.1331 0.2508,-0.1368 0.2818,-0.0864 0.2428,-0.0912 h 0.2882 z m -32.8153,8.4757 v 4.6458 l 5.8184,-4.6021 0.6114,0.0952 0.3324,0.0429 0.279,0.0416 0.5335,0.138 0.5229,0.131 0.4935,0.1776 0.4883,0.2216 0.4058,0.2669 0.4087,0.2709 0.4067,0.2712 0.1658,0.1736 0.1612,0.1778 0.3215,0.3603 0.2908,0.4049 0.2402,0.3952 0.2455,0.4469 0.2036,0.4934 0.1659,0.4931 5.4101,-4.6021 0.6123,0.0952 0.5714,0.0845 0.5709,0.138 0.5246,0.1776 0.4919,0.2204 0.2435,0.0915 0.2403,0.1301 0.2055,0.1338 0.2428,0.1389 0.4086,0.2663 0.4059,0.3542 0.3675,0.3566 0.3679,0.3593 0.281,0.4496 0.3312,0.4448 0.2403,0.4903 0.2446,0.4865 0.2436,0.5362 0.1623,0.4904 0.1268,0.5381 0.1187,0.5329 0.124,0.5411 0.0788,0.5281 0.0469,0.5399 0.0391,0.5779 v 0.5846 0.7108 l -0.0391,0.712 -0.0868,0.7138 -0.0772,0.3581 -0.0396,0.308 -0.1648,0.6721 -0.2023,0.6254 -0.2063,0.6271 -0.2411,0.5761 -0.2907,0.4962 -0.116,0.266 -0.1648,0.2663 -0.3279,0.4891 -0.3678,0.5849 -0.4483,0.5749 -0.483,0.5834 -0.491,0.6265 -0.5662,0.6196 -0.7391,0.8448 -0.6105,0.7613 -0.4849,0.5749 -0.3296,0.4934 -0.3668,0.6265 -0.3209,0.6691 h -1.8307 l -0.0868,-0.7101 v -0.3147 -0.1775 -0.2651 l 0.0441,-0.3216 0.0427,-0.305 0.0364,-0.3611 0.2044,-0.7138 0.1243,-0.4028 0.1168,-0.4448 0.2047,-0.4894 0.2899,-0.6683 0.3607,-0.8518 0.4935,-0.9333 0.4078,-0.8944 0.3215,-0.8001 0.288,-0.7175 0.2058,-0.6195 0.2011,-0.7178 0.078,-0.3526 0.0407,-0.3603 0.086,-0.67 0.0364,-0.67 -0.0364,-0.5771 -0.0407,-0.5359 -0.086,-0.5332 -0.1196,-0.4922 -0.0852,-0.2213 -0.0743,-0.2673 -0.1651,-0.4466 -0.2444,-0.404 -0.2419,-0.4438 -0.3306,-0.4019 -0.3271,-0.3606 -0.4075,-0.2678 -0.3607,-0.2663 -0.2047,-0.0873 -0.2516,-0.0921 -0.2003,-0.0845 -0.2427,-0.0447 -0.2048,-0.0486 -0.243,-0.0447 -0.2435,-0.0438 h -0.2428 l -0.3287,0.0438 -0.3263,0.0447 -0.3634,0.0486 -0.3304,0.1292 -0.3642,0.1368 -0.367,0.1788 -0.4039,0.1736 -0.3643,0.273 v 9.0566 1.2033 l 0.038,0.539 0.0364,0.4466 0.0408,0.3517 0.0468,0.3156 0.0783,0.2678 0.0812,0.1809 0.1224,0.1717 0.1259,0.1767 0.1587,0.138 0.1604,0.0836 0.2047,0.1398 0.2036,0.0426 0.2022,0.0477 h 0.2455 v 0.805 h -9.1576 v -0.805 h 0.2852 0.243 l 0.2408,-0.0903 0.2508,-0.0903 0.1578,-0.0902 0.2031,-0.1809 0.1639,-0.1271 0.1276,-0.2213 0.0752,-0.139 0.0425,-0.1818 0.0407,-0.2231 0.0436,-0.1739 0.0416,-0.2225 0.0355,-0.2727 0.0389,-0.4885 0.0443,-1.6034 v -5.985 l -0.0443,-0.3973 v -0.3563 l -0.0389,-0.3584 -0.0355,-0.3098 -0.0852,-0.3125 -0.0407,-0.27 -0.0796,-0.269 -0.1241,-0.2225 -0.079,-0.1785 -0.1265,-0.1721 -0.281,-0.3164 -0.124,-0.1818 -0.1595,-0.0855 -0.3271,-0.2243 -0.4067,-0.1794 -0.4466,-0.1292 -0.4467,-0.0933 h -0.5343 -0.365 l -0.4114,0.0447 -0.4051,0.0933 -0.4047,0.0845 -0.4494,0.1368 -0.4067,0.1788 -0.4441,0.1736 -0.4508,0.273 v 9.0566 l 0.0396,1.2033 v 0.539 l 0.0408,0.4466 0.0844,0.3517 0.0407,0.3156 0.078,0.2678 0.0788,0.1809 0.1259,0.1717 0.1232,0.1767 0.1595,0.138 0.164,0.0836 0.1628,0.1398 0.2438,0.0426 0.202,0.0477 h 0.2455 v 0.805 h -9.4048 v -0.805 h 0.2888 0.2827 l 0.1631,-0.0477 0.1231,-0.0426 0.2472,-0.0903 0.2031,-0.0902 0.2019,-0.1809 0.1648,-0.1271 0.1587,-0.2213 0.0832,-0.139 0.0791,-0.1818 0.0849,-0.397 0.079,-0.4438 0.0397,-0.5399 0.04,-1.6034 v -7.1843 -0.7585 -0.6213 l -0.04,-0.4448 -0.0804,-0.3642 -0.0816,-0.2663 -0.0799,-0.2639 -0.1673,-0.2672 -0.1595,-0.2204 -0.1578,-0.1797 -0.2544,-0.1845 -0.2403,-0.1341 -0.2435,-0.1301 -0.6478,-0.2253 -1.0217,-0.2204 0.3676,-0.266 0.3642,-0.3204 0.4078,-0.2651 0.4511,-0.2663 0.4491,-0.2195 0.483,-0.2262 0.4927,-0.2222 0.5257,-0.2235 1.1021,-0.4049 1.224,-0.3526 0.6505,-0.1359 0.6486,-0.1797 z m -19.7049,10.49 -10.7863,4.5033 -0.1623,0.5815 -0.1268,0.4439 -0.0796,0.4 -0.0371,0.3177 v 0.3077 l 0.0371,0.2672 0.0796,0.2669 0.1268,0.2709 0.202,0.2265 0.2411,0.2213 0.3306,0.1757 0.202,0.0894 0.1639,0.0836 0.4475,0.1824 v 0.8527 h -6.9633 v -0.8527 l 0.4491,-0.1329 0.4059,-0.2225 0.4069,-0.1757 0.3676,-0.2748 0.1595,-0.1274 0.1631,-0.1399 0.3279,-0.265 0.2835,-0.3086 0.2439,-0.3633 0.2879,-0.4837 0.366,-0.7138 0.4502,-0.9865 0.4846,-1.2452 6.6782,-16.4702 -0.2411,-0.3067 -0.2508,-0.3116 -0.4846,-0.6266 -0.4866,-0.5359 -0.5706,-0.5351 0.9748,-0.5818 0.9756,-0.4904 0.4519,-0.2234 0.4087,-0.1776 0.8505,-0.3526 0.8544,-0.2651 0.5271,-0.1824 0.531,-0.1381 1.2212,-0.266 1.3859,-0.2651 -0.1268,0.8516 -0.0371,0.573 0.0371,0.4457 0.0869,0.4904 0.2446,0.7177 0.5255,1.4675 6.5141,17.7141 0.3651,0.9856 0.2863,0.7147 0.2011,0.5311 0.1665,0.3119 0.1639,0.273 0.1659,0.2651 0.2003,0.263 0.1656,0.2253 0.405,0.4049 0.2039,0.1809 0.2464,0.1261 0.2436,0.1399 0.3659,0.1796 0.4069,0.1739 0.5227,0.1329 v 0.8527 h -12.2503 v -0.8527 l 0.3679,-0.0833 0.3651,-0.1398 0.2427,-0.1323 0.2028,-0.131 0.1251,-0.1399 0.1656,-0.1261 0.0791,-0.139 0.0788,-0.1818 0.086,-0.1766 0.0371,-0.1766 0.04,-0.2204 v -0.2216 l -0.04,-0.3195 v -0.2214 l -0.0779,-0.2243 -0.124,-0.532 -0.1668,-0.6293 z m -1.4242,-3.6621 -2.9711,-7.764 -4.2757,10.6649 z"
       style="fill:#666666;fill-rule:evenodd"
       id="path4" />
  </g>
</svg>
