<?xml version="1.0" encoding="UTF-8" standalone="no"?>
<svg
   xmlns:dc="http://purl.org/dc/elements/1.1/"
   xmlns:cc="http://creativecommons.org/ns#"
   xmlns:rdf="http://www.w3.org/1999/02/22-rdf-syntax-ns#"
   xmlns:svg="http://www.w3.org/2000/svg"
   xmlns="http://www.w3.org/2000/svg"
   xmlns:sodipodi="http://sodipodi.sourceforge.net/DTD/sodipodi-0.dtd"
   xmlns:inkscape="http://www.inkscape.org/namespaces/inkscape"
   version="1.1"
   width="1462"
   height="1138"
   id="svg4"
   viewBox="0 0 1462 1138"
   sodipodi:docname="HInge_Logo_full.cdr.svg"
   inkscape:version="1.0.1 (3bc2e813f5, 2020-09-07)">
  <metadata
     id="metadata10">
    <rdf:RDF>
      <cc:Work
         rdf:about="">
        <dc:format>image/svg+xml</dc:format>
        <dc:type
           rdf:resource="http://purl.org/dc/dcmitype/StillImage" />
        <dc:title></dc:title>
      </cc:Work>
    </rdf:RDF>
  </metadata>
  <defs
     id="defs8" />
  <sodipodi:namedview
     pagecolor="#ffffff"
     bordercolor="#666666"
     borderopacity="1"
     objecttolerance="10"
     gridtolerance="10"
     guidetolerance="10"
     inkscape:pageopacity="0"
     inkscape:pageshadow="2"
     inkscape:window-width="751"
     inkscape:window-height="480"
     id="namedview6"
     showgrid="false"
     inkscape:zoom="0.4745167"
     inkscape:cx="731"
     inkscape:cy="569"
     inkscape:window-x="0"
     inkscape:window-y="31"
     inkscape:window-maximized="0"
     inkscape:current-layer="svg4" />
  <path
     d="m 527.3301,431.0899 c 4,-1.3498 8.1899,-0.1199 12.0099,1.23 11.3799,3.9702 18.8699,17.28 15.2501,29.0001 -2.59999,8.8501 -10.3201,16.1498 -19.55,17.4901 -13.85009,2.7099 -28.26,-9.72 -27.65,-23.8102 -0.45009,-11.49 8.96001,-21.7001 19.94,-23.91 z m -110.66,3.5501 c 13.0898,-0.2199 26.1899,0.0499 39.2899,-0.14 0.2599,1.4599 0.43,2.9398 0.4099,4.4399 -0.1398,29.4001 0.1102,58.7999 -0.12989,88.2 C 468.49,527.9101 481.2,527.9101 493,524.04 c 10.87,-3.5601 18.80991,-12.7599 23.5199,-22.87 7.44011,2.6499 14.91,5.2501 22.1701,8.3699 3.56991,1.58 7.4701,2.3601 10.87991,4.3001 -0.0899,51.9801 -0.0499,103.97 -0.0198,155.9501 -13.13999,0.1998 -26.28999,0.0799 -39.43,0.07 -0.0501,-38.1303 0,-76.25 -0.0201,-114.3802 -2.9999,0.2602 -5.33001,2.4701 -8.0901,3.49 -14.30981,6.1401 -29.95991,9.14 -45.51981,8.78 -0.3901,34.2099 0.01,68.44 -0.20019,102.6502 -13.19981,0.1298 -26.39991,0.1899 -39.6,-0.0301 -0.21991,-34.2 0.21999,-68.4 -0.21991,-102.59 -13.15,0.06 -26.3101,0.01 -39.4699,0.03 -8.6502,-0.2001 -17.3001,0.5199 -25.85,1.8198 -9.68,1.5101 -18.86,7.2502 -23.51,16.0101 -4.7701,9 -4.97,19.4499 -5.7801,29.3701 0.0201,18.28 0.0499,36.5601 -0.01,54.8399 -13.1301,0.03 -26.2602,0.1202 -39.39,-0.0499 0.04,-78.2 0.01,-156.4002 0.01,-234.61 13.1301,-0.2002 26.2599,-0.0902 39.3801,-0.0601 0.0399,35.9002 0.0399,71.8001 0,107.7001 2.7799,-0.33 4.6698,-2.6 7.02,-3.8801 9.03,-5.15 18.9799,-8.6598 29.2498,-10.2699 19.3901,-2.31 38.98011,-0.7002 58.47,-1.2501 0.1502,-30.9299 -0.01,-61.8599 0.0802,-92.7899 z m 241.60991,67.9899 c 8.14,-2.9299 16.95,-2.5699 25.4401,-1.87 8.03,1.62 16.2499,3.59 23.1999,8.13 11.51,6.5599 20.33,17.2602 25.76009,29.2501 5.18991,10.48 6.95,22.2699 7.85001,33.81 0.0499,32.8201 0.0898,65.6498 -0.0202,98.4699 -13.2698,0.11 -26.5399,0.1199 -39.81,0 -0.1398,-26.1399 -0.0199,-52.2799 -0.0598,-78.4199 -0.16019,-11.6901 1.1698,-23.9301 -3.80009,-34.9101 -3.5,-10.0301 -13.0499,-17.0399 -23.33,-18.8399 -12.28,-2.2201 -26.4099,-0.5901 -35.5201,8.7401 -3.5499,4.4699 -6.5999,9.5298 -7.8798,15.16 -1.31011,6.1999 -1.58001,12.5498 -2.23,18.8399 -0.0502,29.62 0.0199,59.2401 -0.03,88.8599 -13.11,0.0201 -26.2202,0.1301 -39.33019,-0.0499 0.0601,-55.4601 0,-110.9101 0.0301,-166.3699 12.27001,-0.0802 24.55,-0.14 36.82001,0.0298 1.4599,5.6199 0.80989,11.5302 2.55009,17.1 8.5498,-8.1899 18.79991,-14.94 30.35991,-17.93 z m 164.7099,2.3 c 9.1301,-2.55 18.4601,-4.9099 28.0202,-4.6001 7.81,-0.2999 15.6498,0.3901 23.1599,2.7 12.71,2.8202 23.7501,10.3601 33.23,19.0302 1.4099,-6.2 1.5701,-12.6499 3.3701,-18.76 10.7898,0.22 21.6,-0.1001 32.4,0.1701 0.0499,50.18 0.0499,100.3498 0.0998,150.5299 -0.29,12.05 0.8402,24.19 -1.1498,36.1499 -2.95,20.4301 -14.5102,39.64 -31.6,51.34 -11.5401,7.99 -25.1901,12.53 -38.9702,14.69 -25.4999,4.32 -53.13,-1.0698 -73.98,-16.75 -12.43981,-9.9198 -23.1499,-23.1001 -27.25991,-38.7 12.13001,-2.4199 23.65991,-7.37 35.85,-9.3699 3.14001,11.2799 11.82991,20.41 22.33001,25.27 10.80989,4.7101 22.9901,6.0999 34.5801,3.9399 11.6399,-1.6398 23.2798,-6.2901 30.96,-15.51 5.4499,-6.7301 8.6998,-15.3199 8.7199,-24.0101 0.08,-8.1498 -0.01,-16.2898 0.07,-24.4397 -5.0799,3.3097 -9.8299,7.1699 -15.3799,9.72 -10.7402,4.9499 -22.57,7.7998 -34.4401,7.3499 -12.52001,0.3498 -25.02,-2.3099 -36.54,-7.1401 -16.27991,-7.1799 -29.91,-20.24 -37.5899,-36.3099 -3.9101,-7.1101 -5.6401,-15.11 -7.53,-22.93 -3.0302,-15.8902 -2.6201,-32.5601 1.8598,-48.1501 3.0402,-12.5499 9.43,-24.2799 18.1902,-33.7598 8.5499,-9.4102 19.6798,-16.2102 31.5998,-20.4602 z m 26.3101,33.1401 c -7.6499,0.8 -14.84,3.9399 -21.32,7.9501 -8.57,5.9099 -14.29001,15.2098 -17.25991,25.0497 -3.12999,14.3402 -2.83999,30.3903 4.94001,43.2601 6.19,11.2099 18.06999,19.0001 30.6499,20.99 13.06,2.3001 27.4399,0.4 38.34,-7.5699 9.2301,-6.26 15.2399,-16.4401 17.7599,-27.1701 1.7702,-7.9699 1.69,-16.3199 0.5901,-24.37 -2.37,-13.8798 -10.8501,-27.1899 -23.8399,-33.2399 -9.0802,-4.8402 -19.7402,-6.16 -29.8601,-4.9 z M 1033.4799,502.8 c 4.7602,-1.0599 9.5601,-2.17 14.4502,-2.34 10.2498,-0.3399 20.63,-0.4 30.6198,2.22 26.9,4.86 50.8,24.85 59.0301,51.1098 5.26,13.3002 5.7699,27.8402 4.86,41.94 -0.18,1.9001 -0.6199,3.7602 -0.97,5.6401 -43.41,0.08 -86.83,-0.1199 -130.2401,0.11 2.7601,12.0402 11.0801,22.5301 21.9901,28.26 8.67,5.0499 18.9099,6.3301 28.7901,5.83 10.4799,0.2401 20.95,-2.8899 29.5798,-8.85 5.1602,-3.1198 9.1902,-7.63 13.5802,-11.66 9.1499,8.3701 17.86,17.2502 26.5598,26.1 -12.1499,13.8001 -28.2799,24.3399 -46.26,28.61 -24.16,5.76 -50.8899,4.94 -73.0899,-7.0699 -18.39999,-9.68 -32.14009,-27.3801 -37.62999,-47.3502 -3.8701,-12.2598 -4.9799,-25.27 -3.92,-38.0398 1.6699,-12.8599 4.6301,-25.91 11.3499,-37.1401 C 992.76001,521.04 1012.1401,507.22 1033.4799,502.8 Z m 15.16,34.9698 c -12.2298,1.8 -24.01,8.4501 -30.8798,18.8802 -2.4602,3.8801 -5.1602,7.9299 -5.4502,12.6499 29.8001,0.0201 59.6002,0.0102 89.4002,0 -3.2102,-11.8001 -11.8,-22.1998 -23.0102,-27.2101 -9.1899,-4.8197 -19.9199,-5.5298 -30.06,-4.32 z"
     style="fill:#666666;fill-rule:evenodd;stroke-width:1"
     id="path2" />
</svg>
