<?xml version="1.0" encoding="utf-8"?>
<!-- Generator: Adobe Illustrator 24.0.2, SVG Export Plug-In . SVG Version: 6.00 Build 0)  -->
<svg version="1.1" id="Layer_1" xmlns="http://www.w3.org/2000/svg" xmlns:xlink="http://www.w3.org/1999/xlink" x="0px" y="0px"
	 viewBox="0 0 500 500" style="enable-background:new 0 0 500 500;" xml:space="preserve">
<style type="text/css">
	.st0{fill:#B6B7B7;}
</style>
<title>ijSVG</title>
<path class="st0" d="M200.2,169h16.7c4,0,7.2,3.2,7.2,7.2v132.7c0,4-3.2,7.2-7.2,7.2h-16.7c-4,0-7.2-3.2-7.2-7.2V176.2
	C193,172.2,196.2,169,200.2,169z"/>
<path class="st0" d="M287.4,169c1.4,0,2.6,1.1,2.6,2.6v157.9c0,1.8-0.1,3.7-0.4,5.5c-2.7,18.4-18.5,32-37.1,32h-21.2
	c-21.1,0-38.3-17.1-38.3-38.3c0,0,0,0,0,0v-5.2c0-1.4,1.1-2.6,2.6-2.6h25.9c1.4,0,2.6,1.1,2.6,2.6l0,0c0,6.3,5.1,11.4,11.4,11.4l0,0
	h10.1c6.3,0,11.4-5.1,11.4-11.4l0,0v-152c0-1.4,1.1-2.6,2.6-2.6H287.4z"/>
<path class="st0" d="M200.3,132h16.3c4,0,7.3,3.3,7.3,7.3v16.3c0,4-3.3,7.3-7.3,7.3h-16.3c-4,0-7.3-3.3-7.3-7.3v-16.3
	C193,135.3,196.3,132,200.3,132z"/>
<path class="st0" d="M264.2,132h18.7c4,0,7.2,3.2,7.2,7.2v16.7c0,4-3.2,7.2-7.2,7.2h-18.7c-4,0-7.2-3.2-7.2-7.2v-16.7
	C257,135.2,260.2,132,264.2,132z"/>
</svg>
