<?xml version="1.0" encoding="UTF-8" standalone="no"?>
<svg
   xmlns:dc="http://purl.org/dc/elements/1.1/"
   xmlns:cc="http://creativecommons.org/ns#"
   xmlns:rdf="http://www.w3.org/1999/02/22-rdf-syntax-ns#"
   xmlns:svg="http://www.w3.org/2000/svg"
   xmlns="http://www.w3.org/2000/svg"
   xmlns:sodipodi="http://sodipodi.sourceforge.net/DTD/sodipodi-0.dtd"
   xmlns:inkscape="http://www.inkscape.org/namespaces/inkscape"
   version="1.1"
   width="595.2756"
   height="841.8898"
   id="svg7"
   sodipodi:docname="Jitjatjo_Logo_horizontally (1).cdr.svg"
   inkscape:version="1.0.1 (3bc2e813f5, 2020-09-07)">
  <metadata
     id="metadata13">
    <rdf:RDF>
      <cc:Work
         rdf:about="">
        <dc:format>image/svg+xml</dc:format>
        <dc:type
           rdf:resource="http://purl.org/dc/dcmitype/StillImage" />
        <dc:title></dc:title>
      </cc:Work>
    </rdf:RDF>
  </metadata>
  <defs
     id="defs11" />
  <sodipodi:namedview
     pagecolor="#ffffff"
     bordercolor="#666666"
     borderopacity="1"
     objecttolerance="10"
     gridtolerance="10"
     guidetolerance="10"
     inkscape:pageopacity="0"
     inkscape:pageshadow="2"
     inkscape:window-width="826"
     inkscape:window-height="480"
     id="namedview9"
     showgrid="false"
     inkscape:zoom="0.64141414"
     inkscape:cx="297.63779"
     inkscape:cy="420.94489"
     inkscape:window-x="0"
     inkscape:window-y="31"
     inkscape:window-maximized="0"
     inkscape:current-layer="svg7" />
  <g
     id="Layer1000"
     style="fill:#666666">
    <path
       d="m 198.7737,365.8297 c 2.2357,-0.4323 4.783,-0.2142 6.5279,1.3983 3.2679,2.5591 3.377,8.0665 0.2259,10.7619 -1.8111,1.8617 -4.631,2.1383 -7.0459,1.5696 -2.7888,-0.9036 -5.005,-3.6729 -4.861,-6.6682 -0.2765,-3.1939 2.0722,-6.2981 5.1531,-7.0616 z m 90.3594,0.004 c 2.3369,-0.4675 5.0167,-0.1792 6.7694,1.5891 3.1393,2.7187 3.0342,8.1521 -0.2026,10.754 -1.8111,1.7216 -4.5259,1.9241 -6.8511,1.3788 -2.337,-0.7401 -4.1833,-2.7732 -4.7559,-5.1453 -0.1441,-1.5618 -0.2804,-3.2523 0.4597,-4.6973 0.888,-1.8501 2.559,-3.3847 4.5805,-3.8793 z m 137.4494,-0.0195 c 2.2631,-0.4168 4.8181,-0.1714 6.5864,1.449 3.003,2.4615 3.3497,7.4977 0.6076,10.2826 -1.4333,1.6671 -3.6612,2.4811 -5.8346,2.2513 -2.4227,0.0156 -4.5571,-1.6126 -5.7334,-3.6418 -0.9426,-1.5696 -0.9192,-3.5054 -0.6543,-5.2582 0.6582,-2.4032 2.5823,-4.4637 5.0283,-5.0829 z m -174.4711,27.0545 c -0.008,-4.6234 -0.0156,-9.2506 0.004,-13.874 3.7586,-0.004 7.5211,-0.008 11.2798,0.004 -0.0233,4.6233 -0.004,9.2467 -0.0117,13.8739 2.8901,0.0312 5.7841,-0.0739 8.6702,0.039 0.3155,3.2717 0.035,6.6915 0.1363,10.0178 -2.9368,0.004 -5.8735,0.008 -8.8065,-0.004 0.0157,16.0628 -0.0233,32.1257 0.0195,48.1886 -3.7742,-0.004 -7.5485,0.0584 -11.3227,-0.0351 0.0545,-16.0512 0.0117,-32.1062 0.0234,-48.1573 -2.8745,0.0428 -5.7528,-0.0351 -8.6235,0.0467 -0.0739,-3.3614 -0.008,-6.7267 -0.0351,-10.088 2.8862,-0.0233 5.7763,-0.008 8.6664,-0.0116 z m 137.6014,-13.874 c 3.6807,-0.008 7.3615,0.004 11.0383,-0.008 -0.004,4.6272 0.0117,9.2544 -0.008,13.8817 2.9133,-0.004 5.8268,0.0194 8.7403,-0.0196 0.004,3.3614 -0.008,6.7188 0.008,10.0802 -2.9134,0.004 -5.8268,0.008 -8.7364,-0.004 -0.008,16.0707 0.004,32.1452 -0.008,48.2159 -3.6769,-0.043 -7.3577,0.008 -11.0345,-0.0273 0.035,-16.055 -0.0507,-32.1141 0.0506,-48.1691 -2.9446,-0.0467 -5.8852,0.0351 -8.826,-0.0429 0.0623,-3.3535 0.004,-6.7032 0.0312,-10.0567 2.929,0.0428 5.8619,0.0234 8.7948,0.0155 -0.1051,-4.6194 -0.0195,-9.2427 -0.0506,-13.8661 z m -53.7233,12.1134 c 8.2106,-0.6466 16.8613,2.7577 21.9676,9.3207 0.222,0.2376 0.4869,0.4206 0.7946,0.557 -0.008,-2.7031 -0.004,-5.4101 -0.004,-8.1133 3.7508,0.0234 7.5094,-0.0701 11.2603,0.0507 -0.0624,19.3969 -0.0195,38.7899 -0.0195,58.1868 -3.7508,0.0313 -7.5018,0.0117 -11.2487,0.0117 0.0273,-2.9523 -0.0194,-5.9008 0.0312,-8.8493 -2.1696,3.0926 -5.0401,5.6983 -8.4404,7.3693 -5.5114,3.1004 -12.1562,3.5989 -18.2713,2.3448 -6.6643,-1.4763 -12.8495,-5.2115 -17.1496,-10.5282 -3.8053,-4.5104 -6.0644,-10.1892 -6.8512,-16.0083 -0.0973,-2.076 -0.0429,-4.152 -0.0389,-6.228 -0.008,-1.9981 0.7011,-3.8911 1.0243,-5.8425 1.4956,-4.8609 4.0313,-9.4336 7.6458,-13.0364 4.6935,-4.8571 11.0539,-8.086 17.7533,-8.9507 0.518,-0.0661 1.0399,-0.1518 1.5463,-0.2843 z m -1.4645,11.4395 c -4.9427,1.1763 -9.3635,4.3078 -12.1368,8.5611 -2.1538,3.1862 -3.1119,7.0539 -3.3145,10.8554 0.2141,3.891 1.2775,7.825 3.5405,11.0421 4.3663,6.6566 13.017,10.0841 20.7602,8.2067 6.4851,-1.4177 12.051,-6.3838 14.2594,-12.6391 1.3321,-3.4237 1.3438,-7.2174 0.7712,-10.8007 -1.2969,-5.6712 -5.0206,-10.8203 -10.2671,-13.4455 -4.1053,-2.3331 -9.0519,-2.594 -13.6129,-1.78 z m 130.6918,-9.4413 c 4.3428,-1.6048 9.0597,-2.3799 13.6869,-1.9982 5.0283,0.6427 9.9944,2.1539 14.2205,5.0167 8.0314,5.2037 13.3598,14.3491 13.8193,23.919 0.1753,3.9262 -0.2376,7.9341 -1.5346,11.6693 -3.3107,10.2166 -12.3977,18.2675 -22.9296,20.3473 -3.9885,0.7401 -8.1327,0.7712 -12.1251,0.0507 -11.7939,-2.0955 -21.8002,-11.8407 -24.1605,-23.5919 -1.7099,-7.0109 -0.5453,-14.5749 2.7616,-20.9548 3.4275,-6.5826 9.3206,-11.8252 16.2615,-14.4581 z m 7.2757,9.5971 c -7.0031,1.3711 -13.0404,6.7928 -14.9722,13.683 -1.8735,5.7996 -0.5103,12.3977 3.1354,17.2236 4.3351,5.8774 12.2186,9.0091 19.3814,7.3849 5.6204,-1.005 10.6021,-4.8065 13.3247,-9.7998 1.4879,-2.5706 2.0877,-5.5308 2.4266,-8.4482 0.257,-7.342 -3.8483,-14.7931 -10.4892,-18.0999 -3.8716,-2.1188 -8.4871,-2.8433 -12.8067,-1.9436 z m -277.423,-9.8387 c 3.7821,0.0351 7.5641,-0.0584 11.3462,0.0545 -0.0313,17.8546 -0.004,35.7091 -0.0117,53.5636 -0.0429,3.5211 0.257,7.12 -0.7479,10.5437 -1.4723,5.7801 -5.7802,10.7619 -11.2798,13.0676 -3.3419,1.5503 -7.1629,1.9008 -10.789,1.4333 -0.0234,-3.8754 -0.0117,-7.7509 -0.004,-11.6264 2.559,0.8296 5.5699,0.5414 7.7666,-1.0828 2.3564,-1.5969 3.7119,-4.4286 3.7196,-7.2524 -0.004,-19.5645 -0.004,-39.1327 0,-58.7011 z m 26.1393,-0.004 c 3.6729,0.0195 7.3497,0.004 11.0266,0.008 0.0117,19.4203 -0.0156,38.8406 0.0155,58.2609 -3.6846,-0.004 -7.3692,-0.0117 -11.05,0.004 0.0117,-19.4241 -0.004,-38.8484 0.008,-58.2726 z m 64.2707,0 c 3.7704,0.0351 7.5407,-0.0311 11.3111,0.039 -0.0234,19.8137 0.0117,39.6274 -0.0156,59.4372 -0.0818,7.6925 -5.1063,15.0424 -12.2574,17.8856 -3.2174,1.449 -6.8475,1.6788 -10.3217,1.3828 -0.4713,-2.0956 -0.1169,-4.2689 -0.222,-6.3994 0.0778,-1.7878 -0.2221,-3.6145 0.2297,-5.3673 1.6749,0.7985 3.6652,0.5609 5.3985,0.0779 3.1783,-0.962 5.3789,-3.965 5.8424,-7.1862 0.074,-19.9539 0.004,-39.9118 0.035,-59.8696 z m 137.4145,-0.004 c 3.7899,0.0505 7.5835,-0.0469 11.3733,0.0545 -0.0389,18.9023 -0.004,37.8045 -0.0156,56.7107 -0.0156,1.706 0.1091,3.4276 -0.2103,5.118 -0.888,6.6098 -5.4101,12.6158 -11.5369,15.2604 -3.4314,1.6204 -7.3575,2.0255 -11.0929,1.5113 -0.0194,-3.8677 0,-7.7354 -0.008,-11.6031 2.3213,0.6933 4.9582,0.6076 7.0927,-0.6154 2.6291,-1.4177 4.4402,-4.3273 4.4014,-7.3342 0.0233,-10.3879 0.0155,-20.7758 -0.0117,-31.1637 -0.078,-3.8949 0.1752,-7.8016 -0.0897,-11.6927 0.1986,-5.414 -0.0156,-10.828 0.0974,-16.2458 z"
       style="fill:#666666;fill-rule:evenodd"
       id="path2" />
    <path
       d="m 146.9206,351.0025 0.0435,83.8063 c 0.003,6.4757 -1.4024,14.4669 -3.8412,20.5576 -6.4007,15.9737 -20.7198,29.505 -37.5119,33.7687 -5.82,1.4777 -12.1716,1.9029 -17.7093,1.754 0.0194,-3.7722 0,-7.5483 0.0116,-11.3244 6.6686,0.4794 13.4342,-0.6205 19.6382,-3.0963 10.66,-4.3394 19.5291,-12.8707 24.1871,-23.4063 0.8508,-1.9269 1.5306,-3.9238 2.1482,-5.9361 0.9936,-3.4765 1.6485,-7.3102 1.6513,-10.9186 l 0.0659,-81.588 z m -18.2395,5.8039 c 0.0778,21.6933 0.0117,43.3903 0.0351,65.0834 -0.0485,5.2377 0.1063,10.4825 -0.0997,15.7171 -0.1888,4.8052 -2.4362,11.3313 -4.8807,15.3424 -4.829,8.4497 -13.0145,14.9413 -22.3923,17.5869 -4.3241,1.3248 -8.9042,1.5695 -13.4029,1.4141 -0.074,-3.8072 0,-7.6143 -0.0389,-11.4177 4.7174,0.1539 9.9313,-0.1454 14.2146,-2.3541 6.0662,-2.884 10.9065,-8.1703 13.4534,-14.3499 1.2158,-2.951 1.6086,-6.6932 1.8803,-9.8568 -0.008,-24.5368 0.031,-49.0736 -0.0194,-73.6068 z m -18.1045,5.7894 -0.0418,63.9715 c -0.0503,3.3799 0.136,6.7673 -0.1942,10.1394 -1.2897,7.8747 -7.8553,14.4517 -15.6597,15.9631 -2.2495,0.2795 -4.5299,0.2603 -6.7909,0.1087 0.0465,-3.8577 0,-7.7154 0.0272,-11.5731 1.8259,0.5947 3.8602,0.5975 5.6814,-0.0127 3.3316,-1.1163 5.8207,-4.4404 5.6935,-7.9939 l 0.027,-67.4065 z"
       style="fill:#666666;fill-rule:evenodd"
       id="path4" />
  </g>
</svg>