<?xml version="1.0" encoding="UTF-8" standalone="no"?>
<svg
   xmlns:dc="http://purl.org/dc/elements/1.1/"
   xmlns:cc="http://creativecommons.org/ns#"
   xmlns:rdf="http://www.w3.org/1999/02/22-rdf-syntax-ns#"
   xmlns:svg="http://www.w3.org/2000/svg"
   xmlns="http://www.w3.org/2000/svg"
   xmlns:sodipodi="http://sodipodi.sourceforge.net/DTD/sodipodi-0.dtd"
   xmlns:inkscape="http://www.inkscape.org/namespaces/inkscape"
   version="1.1"
   width="200.00011"
   height="95"
   id="svg4"
   viewBox="0 0 200.00011 95"
   sodipodi:docname="Kippt_Logo.cdr.svg"
   inkscape:version="1.0.1 (3bc2e813f5, 2020-09-07)">
  <metadata
     id="metadata10">
    <rdf:RDF>
      <cc:Work
         rdf:about="">
        <dc:format>image/svg+xml</dc:format>
        <dc:type
           rdf:resource="http://purl.org/dc/dcmitype/StillImage" />
        <dc:title></dc:title>
      </cc:Work>
    </rdf:RDF>
  </metadata>
  <defs
     id="defs8" />
  <sodipodi:namedview
     pagecolor="#ffffff"
     bordercolor="#666666"
     borderopacity="1"
     objecttolerance="10"
     gridtolerance="10"
     guidetolerance="10"
     inkscape:pageopacity="0"
     inkscape:pageshadow="2"
     inkscape:window-width="1366"
     inkscape:window-height="709"
     id="namedview6"
     showgrid="false"
     inkscape:zoom="5.6842105"
     inkscape:cx="100.00005"
     inkscape:cy="47.5"
     inkscape:window-x="0"
     inkscape:window-y="31"
     inkscape:window-maximized="1"
     inkscape:current-layer="svg4" />
  <path
     d="m 14.4198,1e-4 h 0.22 C 14.9102,13.2198 14.83,26.4499 14.6302,39.6602 19.1801,33.3699 23.9301,27.23 28.7399,21.1398 34.4302,21.2302 40.1102,21.12 45.7897,21.22 41.2801,27.02 36.65,32.7499 31.93,38.4 36.8898,50.7803 42.2101,63.02 47.3899,75.3102 42.1603,75.3198 36.9397,75.3 31.72,75.33 28.1897,67.1699 24.9698,58.8803 21.4699,50.7103 c -2.2397,2.7598 -4.47,5.5295 -6.6898,8.3097 0.0097,5.4301 -0.0102,10.8499 0.0301,16.28 C 9.87,75.3198 4.9399,75.3501 0,75.2603 V 7.6398 C 4.6899,4.8701 9.7999,2.8898 14.4198,1e-4 Z m 172.0103,0 h 0.2599 c 0.3799,7.0699 0.0899,14.1602 0.18,21.2301 4.3801,0.0097 8.75,-0.0402 13.1301,0.1097 V 34.72 c -4.3701,0.1602 -8.75,0.0998 -13.1201,0.11 0.0201,7.42 -0.08,14.8303 0.0201,22.2503 0.03,2.1095 0.6398,4.9799 3.1499,5.3396 3.8599,0.97 7.1699,-1.7802 9.9501,-4.0499 v 1.7601 c -0.7701,4.2499 -1.22,8.5597 -2.01,12.8001 -3.3801,3.0801 -8.5102,3.7097 -12.9402,3.3698 -7.1399,-0.6999 -12.27,-7.5501 -12.5098,-14.4601 -0.2401,-9 0,-18.0099 -0.1001,-27.0201 -2.9599,0 -5.91,0 -8.8699,0 -0.1502,-4.5301 -0.0901,-9.0595 -0.0901,-13.5896 2.99,0.0097 5.9799,0.0097 8.9699,0.0097 0,-4.6296 0,-9.2501 -0.01,-13.8796 C 177.09,4.9001 181.9599,2.82 186.4301,1e-4 Z M 54.0802,0.9699 C 59.5602,-1.17 66.0101,4.37 64.9001,10.13 64.37,16.1301 56.3102,19.3698 51.8102,15.2899 46.58,11.6602 47.9999,2.7999 54.0802,0.9699 Z M 82.62,24.1802 c 7.7499,-6.8 20.88,-4.7602 26.6199,3.6499 5.1602,7.2097 5.9201,16.4999 5.43,25.0801 -0.5499,7.5597 -3.2598,15.6399 -9.6899,20.2 -6.5999,4.6599 -16.0801,4.3398 -22.4402,-0.6302 0.1205,5.1302 0.0102,10.27 0.1,15.4097 -4.6295,2.4602 -9.35,4.7501 -14.0295,7.1105 h -0.4104 c -0.11,-24.5804 0.0102,-49.1701 -0.0601,-73.7501 4.7704,-0.0199 9.5403,0.03 14.3101,-0.0601 0.04,0.7497 0.1301,2.2402 0.1701,2.9902 z M 82.5999,38 c 0.0501,6.73 -0.0896,13.4603 0.0399,20.1897 3.03,5.4403 13.15,6.7303 15.8602,0.2501 2.5801,-6.6399 2.45,-14.6597 -0.72,-21.0796 C 94.5198,31.6699 85.97,33.17 82.5999,38 Z M 132.44,24.17 c 6.27,-5.4399 16.1799,-5.32 22.6701,-0.35 5.9499,4.5 8.46,12.0903 9.22,19.25 0.7999,8.4101 0.21,17.5102 -4.5102,24.7901 -5.58,9.2098 -19.1498,11.2899 -27.4899,4.6398 0.12,5.1701 0.0701,10.3303 0.0601,15.5001 -4.7202,2.2898 -9.35,4.75 -14.0901,7.0002 h -0.4201 c -0.01,-24.5804 -0.01,-49.1604 0,-73.7303 4.8101,-0.0499 9.6202,-0.03 14.4201,-0.03 0.04,0.7302 0.11,2.1999 0.14,2.9301 z m 0.0199,14.1903 c -0.15,6.7597 -0.0199,13.5294 -0.04,20.3 2.92,3.3398 7.74,5.0794 12.0501,3.6198 3.88,-1.7299 5.1301,-6.33 5.36,-10.22 0.2001,-5.1298 0.33,-10.7702 -2.5999,-15.2203 -3.49,-5.1098 -12.0901,-3.6199 -14.7702,1.5205 z M 49.5397,21.18 c 4.8104,0.01 9.6103,-0.0402 14.4204,0.04 0.22,18.0199 0.0598,36.0499 0.1199,54.0697 -4.8402,0.0403 -9.68,0.0403 -14.5199,0 C 49.5,57.2501 49.5499,39.2101 49.5397,21.18 Z"
     style="fill:#666666;fill-rule:evenodd"
     id="path2" />
</svg>
