<?xml version="1.0" encoding="UTF-8" standalone="no"?>
<svg
   xmlns:dc="http://purl.org/dc/elements/1.1/"
   xmlns:cc="http://creativecommons.org/ns#"
   xmlns:rdf="http://www.w3.org/1999/02/22-rdf-syntax-ns#"
   xmlns:svg="http://www.w3.org/2000/svg"
   xmlns="http://www.w3.org/2000/svg"
   xmlns:sodipodi="http://sodipodi.sourceforge.net/DTD/sodipodi-0.dtd"
   xmlns:inkscape="http://www.inkscape.org/namespaces/inkscape"
   version="1.1"
   width="1450.0001"
   height="450"
   id="svg10"
   viewBox="0 0 1450.0001 450"
   sodipodi:docname="massy.svg"
   inkscape:version="1.0.1 (3bc2e813f5, 2020-09-07)">
  <metadata
     id="metadata16">
    <rdf:RDF>
      <cc:Work
         rdf:about="">
        <dc:format>image/svg+xml</dc:format>
        <dc:type
           rdf:resource="http://purl.org/dc/dcmitype/StillImage" />
        <dc:title />
      </cc:Work>
    </rdf:RDF>
  </metadata>
  <defs
     id="defs14" />
  <sodipodi:namedview
     pagecolor="#ffffff"
     bordercolor="#666666"
     borderopacity="1"
     objecttolerance="10"
     gridtolerance="10"
     guidetolerance="10"
     inkscape:pageopacity="0"
     inkscape:pageshadow="2"
     inkscape:window-width="1366"
     inkscape:window-height="709"
     id="namedview12"
     showgrid="false"
     inkscape:zoom="0.80620683"
     inkscape:cx="365.84197"
     inkscape:cy="225"
     inkscape:window-x="0"
     inkscape:window-y="31"
     inkscape:window-maximized="1"
     inkscape:current-layer="svg10"
     inkscape:document-rotation="0"
     inkscape:lockguides="true" />
  <path
     d="m 221.01,111.02 c 14.29,-0.0399 28.5899,-0.0501 42.8799,0 21.57,21.46 43.0401,43.02 64.60019,64.4899 1.4199,1.7501 3.8999,3.06 4.4098,5.3 -11.5398,11.9202 -23.51989,23.4201 -35.09999,35.3001 -8.9498,-8.28 -17.0798,-17.42 -26.1099,-25.6099 -0.29,9.1199 -0.1499,18.25 -0.07,27.3699 -16.8599,0.32 -33.7399,0.1001 -50.61,0.11 -0.04,-35.6499 -0.04,-71.31 0,-106.96 z m 622.93999,42.9001 c 15.44,-8.31 33.5701,-10.2401 50.8201,-8.5901 14.8799,1.9199 30.0098,7.2199 40.61,18.25 6.30989,6.92 11.62989,15.5801 12.68979,25.03 -11.9199,1.5599 -23.8198,3.27 -35.6998,5.11 -2.7102,-5.9301 -7.04009,-11.2499 -13.0601,-14.0199 -10.26989,-4.4702 -22.19009,-4.86 -32.78009,-1.2402 -4.2599,1.3301 -8.1499,4.9502 -8.51981,9.58 0.3498,4.0102 2.36981,7.9501 5.80001,10.1701 6.3,4.7501 14.47,5.12 21.85989,6.9999 17.23011,3.93 35.57001,6.41 50.4601,16.6601 7.9399,5.14 13.6999,13.6899 15.0599,23.0899 1.8201,8.39 0.14001,17.2601 -3.1201,25.09 -5.17999,11.8701 -16.07979,20.2102 -27.66979,25.3301 -15.61011,6.3799 -32.97011,7.6099 -49.5301,4.9601 -14.18,-1.9902 -28.1001,-7.7001 -38.6101,-17.5901 -8.28,-8.3501 -13.4399,-19.2501 -16.2998,-30.5499 12.2499,-1.4802 24.39979,-3.5702 36.61999,-5.2401 2.05991,7.09 6.2798,13.8801 12.81991,17.5901 8.71,5.6699 19.5801,5.9698 29.62009,5.33 5.34981,-0.76 11.0699,-1.8802 15.17981,-5.6801 3.83019,-3.3899 5.04,-9.9 1.5701,-13.97 -3.9299,-4.9501 -10.15,-7.1401 -15.97011,-8.9801 -18.75999,-5.4099 -39.18979,-6.4599 -56.20989,-16.8398 -9.1,-5.3901 -15.98,-14.33 -18.2599,-24.7201 -1.3502,-8.3401 -1.5401,-17.3599 2.23989,-25.13 3.86991,-9.1601 11.58011,-16.2601 20.38001,-20.6399 z m 128.8199,1.8099 c 16.08999,-9.6601 35.55011,-12.24 54.00001,-10.4 11.6402,1.5999 23.4802,4.7299 33.0602,11.8301 9.3699,6.5398 16.7298,16.1799 19.7699,27.26 0.3399,1.36 0.3501,2.7799 0.4499,4.1799 -11.9599,1.55 -23.87,3.4101 -35.7999,5.12 -2.4301,-7.2499 -8.82,-12.6 -15.8301,-15.23 -7.5299,-2.45 -15.6798,-3.32 -23.4598,-1.6299 -6.08002,0.75 -13.52011,3.5699 -14.72001,10.3699 -0.6701,7.4801 6.4499,12.78 12.93991,14.59 15.95,4.35 32.54,6.33 48.2,11.7601 11.1501,3.81 22.5201,9.9499 28.2501,20.7399 9.4799,17.4799 2.99,40.94 -12.7701,52.5201 -20.3199,15.87 -48.31,17.6099 -72.61002,11.7598 -16.62999,-3.8798 -32.22989,-14.29 -39.99009,-29.78 1.1002,-5.86 2.69009,-11.6699 2.87009,-17.6799 9.15,-1.6501 18.3801,-2.7499 27.5601,-4.2001 2.1399,6.4902 5.40001,13.1901 11.49001,16.8202 6.92991,4.7699 15.52001,6.52 23.83001,6.3198 7.2799,0.2302 14.9899,-0.72 21.1399,-4.93 3.9799,-2.8298 6.3199,-8.64 3.7599,-13.1598 -3.0299,-5.8502 -9.79,-8.1902 -15.62,-10.2702 -14.98,-4.6398 -30.78991,-6.1299 -45.58002,-11.45 -9.79,-3.9498 -19.69989,-9.3799 -25.3998,-18.6199 -5.74019,-8.8801 -6.7802,-20.0699 -4.92999,-30.28 2.2498,-10.94 9.9399,-20.0299 19.3898,-25.64 z m -477.7498,-8.71 c 19.91001,-0.03 39.8299,-0.0399 59.7399,0 4.29001,17.83 9.47,35.43 14.04,53.18 4.72001,16.7 8.64,33.6401 13.77011,50.21 9.02979,-34.3899 18.13979,-68.76 26.93,-103.2199 19.72999,-0.3801 39.4898,-0.1902 59.2299,-0.1001 -0.0799,50.6101 -0.07,101.2099 0,151.8101 -12.24001,0.2299 -24.48001,0.0799 -36.72001,0.0799 -0.18,-39.3999 0.2501,-78.81 -0.21,-118.1999 -1.5199,3.4699 -2.15999,7.2198 -3.1099,10.8598 -5.95019,21.38 -11.89019,42.77 -17.8101,64.15 -4.14989,14.3601 -7.55,28.9301 -11.9701,43.2 -11.34,0.07 -22.66979,-0.0499 -33.9999,0.07 -10.94,-38.2399 -21.2899,-76.6598 -32.0899,-114.9499 -0.2202,-0.4099 -0.64999,-1.23 -0.86,-1.6501 -0.54,14.5001 -0.0802,29.0302 -0.2302,43.5402 0.0201,24.3099 -0.0399,48.6099 0.0301,72.9198 -12.24999,0.1902 -24.4999,0.07 -36.75009,0.0601 -0.0399,-50.65 -0.0598,-101.3 0.0102,-151.96 z m 234.8898,-0.0501 c 13.3002,0.0802 26.6001,-0.0298 39.9002,0.07 19.4,50.6602 38.7199,101.3601 58.2999,151.95 -13.29,0.0102 -26.57,0.0601 -39.8401,-0.0198 -3.4098,-9.11 -6.52,-18.3201 -9.7299,-27.4901 -19.3899,-0.0199 -38.78,0.0499 -58.1701,-0.0301 -3.1099,9.1902 -6.3399,18.3402 -9.54,27.5001 -12.99,0.1099 -25.9798,0.07 -38.9698,0.0201 18.89,-50.8402 38.8899,-101.2601 58.0498,-152.0002 z m 19.4202,41.8402 c -5.33,17.0098 -11.96,33.5698 -17.43,50.5298 11.74,0.1301 23.4899,0.1902 35.2299,-0.03 -5.9899,-16.8098 -11.35,-33.8599 -17.7999,-50.4998 z M 1064.85,146.9999 c 14.3101,0.0102 28.62,-0.04 42.94,0.0301 8.2199,14.18 16.3701,28.4 24.5999,42.5701 3.4801,4.9898 5.4902,11.0599 9.54,15.5999 4.6602,-7.05 9.0902,-14.55 13.2302,-22.03 3.3899,-5.3501 6.6699,-10.77 9.6698,-16.3599 4.1201,-6.4001 7.8401,-13.0201 11.5302,-19.6702 14.26,-0.32 28.5299,-0.0499 42.8,-0.14 -19.2401,31.0901 -38.8301,61.9702 -58.2701,92.9302 -0.8901,1.1599 -0.9099,2.6198 -0.9099,4.0198 0.02,18.3401 0.05,36.6902 0,55.04 -12.3202,0.04 -24.6501,0.0301 -36.97,-0.01 -0.03,-17.67 -0.05,-35.3401 0.02,-53.0101 -0.07,-2.0399 0.2602,-4.29 -1.0298,-6.0299 -18.9102,-31.07 -38.2901,-61.85 -57.1501,-92.9401 z"
     style="fill:#999999;fill-rule:evenodd;stroke-width:1"
     id="path2" />
  <path
     d="m 415.1999,112.2401 c 1.1302,-1.48 3.1102,-1.1302 4.75,-1.2501 13,0.1 26.0102,-0.0301 39.0101,0.07 0.1199,35.68 0.1199,71.3599 0,107.0399 -16.6501,0.15 -33.3099,0.1602 -49.96,-0.01 -0.2101,-9.36 0.0901,-18.7101 -0.1599,-28.0701 -9.0502,8.8702 -17.9101,17.9402 -26.9201,26.86 -1.4601,1.73 -3.9101,1.19 -5.8901,1.3501 -22.0898,-0.2001 -44.1799,0.2101 -66.27,-0.22 0.79,-0.96 1.5902,-1.9099 2.44,-2.8201 34.3301,-34.31 68.6801,-68.62 103,-102.9498 z"
     style="fill:#808080;fill-rule:evenodd"
     id="path4" />
  <path
     d="m 221.0601,228.0501 c 16.85,-0.1001 33.7298,-0.3501 50.5698,0.1298 -0.03,9.07 -0.32,18.1602 0.1301,27.2302 9.7501,-8.43 18.2299,-18.2602 27.6801,-27.0301 1.76,-0.64 3.6898,-0.3999 5.54,-0.4799 22.03,0.1599 44.06,-0.14 66.0798,0.15 -34.4999,34.8298 -69.3799,69.2898 -103.93,104.0799 -1.4298,1.34 -2.8499,3.2199 -5.0598,2.9299 -13.6701,-0.03 -27.3501,0.1401 -41.0202,-0.1 -0.1599,-35.64 -0.1698,-71.28 0.0102,-106.9098 z"
     style="fill:#4d4d4d;fill-rule:evenodd"
     id="path6" />
  <path
     d="m 409.03,228.02 c 16.64,-0.1301 33.2799,-0.1199 49.9201,0 0.1199,35.65 0.11,71.3101 0.01,106.96 -12.6601,0.21 -25.3199,-0.0201 -37.98,0.1199 -1.9499,-0.1899 -4.39,0.4402 -5.8099,-1.2798 C 392.44,311.1401 369.7999,288.3699 347,265.75 c 11.7301,-12.0401 23.62,-23.9601 35.6899,-35.67 8.71,8.7199 17.28,17.5901 26.2202,26.0699 0.18,-9.3798 -0.0901,-18.75 0.1199,-28.1299 z"
     style="fill:#999999;fill-rule:evenodd"
     id="path8" />
</svg>
