<?xml version="1.0" encoding="UTF-8" standalone="no"?>
<svg
   xmlns:dc="http://purl.org/dc/elements/1.1/"
   xmlns:cc="http://creativecommons.org/ns#"
   xmlns:rdf="http://www.w3.org/1999/02/22-rdf-syntax-ns#"
   xmlns:svg="http://www.w3.org/2000/svg"
   xmlns="http://www.w3.org/2000/svg"
   xmlns:sodipodi="http://sodipodi.sourceforge.net/DTD/sodipodi-0.dtd"
   xmlns:inkscape="http://www.inkscape.org/namespaces/inkscape"
   version="1.1"
   width="595.27557"
   height="841.88977"
   id="svg39"
   viewBox="0 0 595.27557 841.88977"
   sodipodi:docname="The_National_Logo.cdr.svg"
   inkscape:version="1.0.1 (3bc2e813f5, 2020-09-07)">
  <metadata
     id="metadata45">
    <rdf:RDF>
      <cc:Work
         rdf:about="">
        <dc:format>image/svg+xml</dc:format>
        <dc:type
           rdf:resource="http://purl.org/dc/dcmitype/StillImage" />
        <dc:title></dc:title>
      </cc:Work>
    </rdf:RDF>
  </metadata>
  <defs
     id="defs43" />
  <sodipodi:namedview
     pagecolor="#ffffff"
     bordercolor="#666666"
     borderopacity="1"
     objecttolerance="10"
     gridtolerance="10"
     guidetolerance="10"
     inkscape:pageopacity="0"
     inkscape:pageshadow="2"
     inkscape:window-width="1366"
     inkscape:window-height="709"
     id="namedview41"
     showgrid="false"
     inkscape:zoom="0.64141414"
     inkscape:cx="297.63779"
     inkscape:cy="420.94489"
     inkscape:window-x="0"
     inkscape:window-y="31"
     inkscape:window-maximized="1"
     inkscape:current-layer="svg39" />
  <g
     id="Layer1000"
     style="fill:#666666">
    <g
       id="Layer1001"
       style="fill:#666666">
      <g
         id="Layer1002"
         style="fill:#666666">
        <path
           d="m 176.9105,364.873 v -17.1671 h 65.8817 v 17.1671 h -23.4096 v 52.5048 H 200.0974 V 364.873 Z"
           style="fill:#666666;fill-rule:evenodd"
           id="path2" />
        <path
           d="m 273.2247,366.5452 c 2.6753,-1.3377 5.7966,-2.0066 9.364,-2.0066 3.2326,0 5.9082,0.4458 8.1377,1.449 2.2294,0.8918 4.013,2.3409 5.3506,4.1247 1.3377,1.7836 2.3409,4.013 2.8985,6.4656 0.5573,2.5639 0.8917,5.3506 0.8917,8.4721 v 32.4392 H 280.582 v -28.4261 c 0,-1.1149 -0.1114,-2.1181 -0.2231,-3.2327 -0.1114,-1.0032 -0.4459,-2.0066 -0.7803,-2.8984 -0.4459,-0.8918 -1.0032,-1.5608 -1.895,-2.118 -0.8918,-0.5573 -2.0067,-0.7804 -3.3443,-0.7804 -2.3409,0 -4.2361,0.7804 -5.6852,2.3408 -1.4491,1.5608 -2.118,4.2361 -2.118,8.0263 v 26.9771 h -19.285 v -69.7833 h 19.2852 v 24.8589 c 1.7836,-2.5639 4.0131,-4.5705 6.6884,-5.9082 z"
           style="fill:#666666;fill-rule:evenodd"
           id="path4" />
        <path
           d="m 320.4901,416.7088 c -3.5671,-1.3377 -6.5769,-3.3443 -9.0294,-5.7966 -2.4526,-2.4525 -4.3475,-5.4623 -5.5738,-8.8064 -1.3377,-3.4557 -1.895,-7.1345 -1.895,-11.2589 0,-4.1247 0.669,-7.8032 2.1181,-11.2589 1.4491,-3.3443 3.4557,-6.2425 5.9082,-8.5836 2.4526,-2.3409 5.4624,-4.1247 8.8064,-5.4624 3.3443,-1.3377 7.0229,-1.8949 10.9245,-1.8949 4.5706,0 8.5836,0.7803 12.2621,2.4525 3.5671,1.6721 6.5769,4.013 9.1409,6.9114 2.4525,2.8984 4.3475,6.3542 5.4623,10.2558 1.2263,3.9016 1.6722,8.1377 1.3377,12.5966 l -37.3439,-3e-4 c 0.3345,2.6753 1.3377,4.682 3.1212,6.3541 1.7836,1.5608 4.2361,2.3409 7.2459,2.3409 1.895,0 3.6788,-0.4459 5.3507,-1.2263 1.6722,-0.7804 2.7868,-2.0066 3.4557,-3.3443 h 18.059 c -0.5573,1.895 -1.5608,4.013 -2.8984,6.1311 -1.3377,2.2294 -3.2327,4.236 -5.4624,6.0196 -2.2294,1.895 -4.9048,3.4557 -8.0263,4.682 -3.1212,1.2263 -6.6886,1.8949 -10.7016,1.8949 -4.57,0.1117 -8.6947,-0.6686 -12.2619,-2.0063 z m 9.4754,-39.3506 c -1.0032,0.3345 -2.0066,0.7804 -3.0098,1.4491 -0.8918,0.669 -1.7836,1.5608 -2.4526,2.5639 -0.7803,1.0032 -1.2262,2.3409 -1.5607,3.9017 h 20.0656 c -0.1114,-1.5608 -0.5573,-2.7868 -1.1149,-3.9017 -0.6689,-1.0031 -1.449,-1.8949 -2.4525,-2.5639 -1.0032,-0.669 -2.0066,-1.1149 -3.1212,-1.4491 -1.1149,-0.3345 -2.1181,-0.4459 -3.2327,-0.4459 -1.1145,0 -2.0063,0.1114 -3.1212,0.4459 z"
           style="fill:#666666;fill-rule:evenodd"
           id="path6" />
      </g>
      <g
         id="Layer1003"
         style="fill:#666666">
        <path
           d="m 219.494,453.4954 v 44.1439 l -19.2852,3e-4 v -69.7833 h 24.7475 l 22.4065,44.367 v -44.367 h 19.2849 v 69.7833 H 241.789 Z"
           style="fill:#666666;fill-rule:evenodd"
           id="path9" />
        <path
           d="m 304.2147,459.9609 c -0.4458,-0.8917 -1.0031,-1.5607 -1.6721,-2.118 -0.669,-0.4459 -1.5608,-0.7804 -2.4526,-1.0032 -0.8917,-0.2231 -1.8949,-0.3345 -2.8984,-0.3345 -2.4525,0 -4.4589,0.5573 -5.9082,1.6722 -1.5608,1.1149 -2.4526,2.7867 -2.7868,5.0165 h -16.4979 c 0.2231,-2.4526 0.8918,-4.7934 2.1181,-7.1346 1.2262,-2.3408 2.8984,-4.3475 5.1278,-6.131 2.2295,-1.7836 4.9048,-3.2326 8.1377,-4.2361 3.2327,-1.1149 6.9115,-1.6722 11.259,-1.6722 3.6788,0 7.1345,0.3345 10.2557,1.1149 3.1212,0.7804 5.7966,2.0066 8.0263,3.7902 2.2295,1.7836 3.9016,4.1247 5.2393,7.0228 1.2263,2.8985 1.8949,6.577 1.7835,10.9245 l -0.1114,9.9212 v 5.1279 c 0,1.7836 0,3.5671 0.1114,5.4624 0.1114,1.8949 0.2231,3.6788 0.3345,5.4623 0.1114,1.7836 0.3345,3.3444 0.4459,4.7934 h -17.9478 v -6.6886 c -1.895,2.8984 -4.4589,4.9048 -7.4687,6.131 -3.1213,1.2263 -6.4656,1.7836 -10.1444,1.7836 -2.4525,0 -4.9048,-0.3345 -7.1345,-1.1149 -2.2295,-0.7803 -4.2361,-1.7835 -5.9083,-3.1212 -1.6721,-1.3377 -3.0098,-3.0098 -4.013,-4.9048 -1.0032,-1.8949 -1.449,-4.013 -1.449,-6.3541 0,-3.0098 0.7803,-5.5738 2.2294,-7.8032 1.5608,-2.2295 3.6788,-4.013 6.6886,-5.4624 2.8985,-1.4491 6.4656,-2.6753 10.8131,-3.4557 4.2361,-0.7804 9.1409,-1.4491 14.6032,-1.7836 v -1.449 c -0.1114,-1.4491 -0.3345,-2.5637 -0.7804,-3.4558 z m -10.2557,16.4985 c -2.6753,1.0032 -3.9016,2.564 -3.9016,4.9048 0,1.1149 0.4459,2.1181 1.4491,3.1212 1.0031,1.0032 2.5639,1.5608 4.9047,1.5608 1.2263,0 2.3409,-0.1114 3.5672,-0.4459 1.1148,-0.3345 2.118,-0.7804 3.0098,-1.5607 0.8918,-0.7804 1.5607,-1.7836 2.0066,-3.1213 0.4459,-1.3376 0.669,-2.8984 0.669,-4.9048 v -1.5607 c -5.2393,0.3345 -9.1409,1.0032 -11.7048,2.0066 z"
           style="fill:#666666;fill-rule:evenodd"
           id="path11" />
        <path
           d="m 353.821,431.6465 v 14.2688 h 13.1542 V 458.066 H 353.821 v 23.0751 c 0,1.4491 0.3345,2.4526 0.8918,2.8985 0.5573,0.4458 1.5608,0.6689 2.7868,0.6689 h 9.4756 v 13.0425 h -13.2656 c -3.5671,0 -6.5769,-0.1114 -9.0294,-0.4459 -2.4526,-0.3345 -4.3475,-1.0031 -5.9083,-2.0066 -1.4491,-1.0032 -2.5639,-2.6754 -3.2326,-4.682 -0.669,-2.118 -1.0032,-4.9048 -1.0032,-8.4722 v -24.0786 l -10.3672,3e-4 v -12.1507 h 10.3672 v -14.2688 z"
           style="fill:#666666;fill-rule:evenodd"
           id="path13" />
        <path
           d="m 390.7193,441.5678 h -19.2852 v -13.7115 h 19.2852 z m 0,56.0718 h -19.2852 v -51.7243 h 19.2852 z"
           style="fill:#666666;fill-rule:evenodd"
           id="path15" />
        <path
           d="m 412.234,497.1937 c -3.4557,-1.1148 -6.4655,-2.7867 -9.1409,-5.1278 -2.5639,-2.2295 -4.682,-5.1279 -6.131,-8.4722 -1.5608,-3.3443 -2.2295,-7.3574 -2.2295,-11.9279 0,-4.5706 0.7804,-8.5836 2.2295,-11.9279 1.5607,-3.3444 3.5671,-6.2425 6.131,-8.4722 2.564,-2.2295 5.5738,-4.013 9.1409,-5.1279 3.4557,-1.1149 7.1345,-1.7836 10.9245,-1.7836 3.9016,0 7.4687,0.5573 10.9244,1.7836 3.4557,1.1149 6.4655,2.8984 9.0295,5.1279 2.5639,2.2294 4.682,5.1278 6.2424,8.4722 1.5608,3.4557 2.3409,7.3573 2.3409,11.9279 0,4.5705 -0.7804,8.5836 -2.3409,11.9279 -1.5607,3.4557 -3.5671,6.2424 -6.2424,8.4722 -2.564,2.2294 -5.5738,4.013 -9.0295,5.1278 -3.4557,1.1149 -7.0228,1.6722 -10.9244,1.6722 -3.7902,0 -7.3574,-0.5576 -10.9245,-1.6722 z m 4.9048,-35.672 c -1.6722,1.895 -2.4525,5.2393 -2.4525,10.1443 0,2.4526 0.2231,4.4589 0.6689,6.1311 0.4459,1.6722 1.0032,2.8984 1.7836,3.9016 0.7804,1.0032 1.6722,1.6722 2.7867,2.1181 1.0032,0.4458 2.2295,0.6689 3.4558,0.6689 1.2262,0 2.3408,-0.2231 3.4557,-0.6689 1.0032,-0.4459 2.0066,-1.1149 2.7867,-2.1181 0.7804,-1.0032 1.3377,-2.3408 1.7836,-3.9016 0.4459,-1.6722 0.669,-3.6788 0.669,-6.1311 0,-4.7933 -0.8918,-8.1377 -2.4526,-10.1443 -1.6721,-1.895 -3.6788,-2.8984 -6.131,-2.8984 -2.4523,0 -4.6817,1.0034 -6.3539,2.8984 z"
           style="fill:#666666;fill-rule:evenodd"
           id="path17" />
        <path
           d="m 481.7942,446.8071 c 2.6754,-1.3377 5.7966,-2.0067 9.364,-2.0067 3.2326,0 5.9083,0.4459 8.1377,1.4491 2.2295,1.0032 4.013,2.3408 5.3507,4.1247 1.3377,1.7835 2.3408,4.013 2.8984,6.4655 0.5573,2.564 0.8918,5.3507 0.8918,8.4722 v 32.4391 h -19.2852 v -28.5375 c 0,-1.1149 -0.1114,-2.118 -0.2231,-3.2326 -0.1114,-1.1149 -0.4459,-2.0067 -0.7804,-2.8984 -0.4459,-0.8918 -1.0032,-1.5608 -1.895,-2.1181 -0.8917,-0.5573 -2.0066,-0.7804 -3.3443,-0.7804 -2.3408,0 -4.2361,0.7804 -5.6851,2.3409 -1.4491,1.5607 -2.1181,4.2361 -2.1181,8.0263 v 27.0884 h -19.2849 v -51.7243 h 19.2849 v 6.6886 c 1.6722,-2.5642 3.9016,-4.4592 6.6886,-5.7968 z"
           style="fill:#666666;fill-rule:evenodd"
           id="path19" />
        <path
           d="m 546.0038,459.9609 c -0.4459,-0.8917 -1.0032,-1.5607 -1.6722,-2.118 -0.669,-0.4459 -1.5607,-0.7804 -2.4525,-1.0032 -0.8918,-0.2231 -1.895,-0.3345 -2.8984,-0.3345 -2.4526,0 -4.4589,0.5573 -5.9083,1.6722 -1.5607,1.1149 -2.4525,2.7867 -2.7867,5.0165 h -16.4982 c 0.2231,-2.4526 0.8917,-4.7934 2.118,-7.1346 1.2263,-2.3408 2.8984,-4.3475 5.1279,-6.131 2.2294,-1.7836 4.9048,-3.2326 8.1377,-4.2361 3.2326,-1.1149 6.9114,-1.6722 11.2589,-1.6722 3.6788,0 7.1345,0.3345 10.2558,1.1149 3.1212,0.7804 5.7965,2.0066 8.0263,3.7902 2.2294,1.7836 3.9016,4.1247 5.2392,7.0228 1.2263,2.8985 1.895,6.577 1.7836,10.9245 l -0.1114,9.9212 v 5.1279 c 0,1.7836 0,3.5671 0.1114,5.4624 0.1114,1.8949 0.2231,3.6788 0.3345,5.4623 0.1114,1.7836 0.3345,3.3444 0.4459,4.7934 H 548.456 v -6.6886 c -1.8949,2.8984 -4.4589,4.9048 -7.4687,6.131 -3.1212,1.2263 -6.4655,1.7836 -10.1443,1.7836 -2.4526,0 -4.9048,-0.3345 -7.1346,-1.1149 -2.2294,-0.7803 -4.2361,-1.7835 -5.9082,-3.1212 -1.6722,-1.3377 -3.0098,-3.0098 -4.013,-4.9048 -1.0032,-1.8949 -1.4491,-4.013 -1.4491,-6.3541 0,-3.0098 0.7804,-5.5738 2.2295,-7.8032 1.5607,-2.2295 3.6788,-4.013 6.6886,-5.4624 2.8984,-1.4491 6.4655,-2.6753 10.813,-3.4557 4.2361,-0.7804 9.1409,-1.4491 14.6033,-1.7836 v -1.449 c 0,-1.4491 -0.2228,-2.5637 -0.6687,-3.4558 z m -10.3672,16.4985 c -2.6753,1.0032 -3.9016,2.564 -3.9016,4.9048 0,1.1149 0.4459,2.1181 1.4491,3.1212 1.0032,1.0032 2.5639,1.5608 4.9048,1.5608 1.2262,0 2.3408,-0.1114 3.5671,-0.4459 1.1149,-0.3345 2.118,-0.7804 3.0098,-1.5607 0.8918,-0.7804 1.5608,-1.7836 2.0067,-3.1213 0.4459,-1.3376 0.6689,-2.8984 0.6689,-4.9048 v -1.5607 c -5.1278,0.3345 -9.0294,1.0032 -11.7048,2.0066 z"
           style="fill:#666666;fill-rule:evenodd"
           id="path21" />
        <path
           d="m 569.8593,497.6396 v -69.7833 h 19.2852 v 69.7833 z"
           style="fill:#666666;fill-rule:evenodd"
           id="path23" />
      </g>
    </g>
    <g
       id="Layer1004"
       style="fill:#666666">
      <g
         id="Layer1005"
         style="fill:#666666">
        <path
           d="m 116.0453,347.7059 v 23.4096 h 18.7276 V 474.23 h -18.7276 v 23.4096 h 42.1376 V 347.7059 Z"
           style="fill:#666666;fill-rule:evenodd"
           id="path27" />
        <path
           d="M 8.2491,497.6396 H 50.3867 V 474.23 H 31.6587 V 371.1155 h 18.728 V 347.7059 H 8.2491 Z"
           style="fill:#666666;fill-rule:evenodd"
           id="path29" />
      </g>
      <g
         id="Layer1006"
         style="fill:#666666">
        <path
           d="m 59.862,347.7059 v 23.4096 l 46.8193,51.5015 v -74.9111 z"
           style="fill:#666666;fill-rule:evenodd"
           id="path32" />
        <path
           d="m 59.862,497.6396 h 46.8193 V 474.23 L 59.862,422.617 Z"
           style="fill:#666666;fill-rule:evenodd"
           id="path34" />
      </g>
    </g>
  </g>
</svg>
