<?xml version="1.0" encoding="UTF-8" standalone="no"?>
<svg
   xmlns:dc="http://purl.org/dc/elements/1.1/"
   xmlns:cc="http://creativecommons.org/ns#"
   xmlns:rdf="http://www.w3.org/1999/02/22-rdf-syntax-ns#"
   xmlns:svg="http://www.w3.org/2000/svg"
   xmlns="http://www.w3.org/2000/svg"
   xmlns:sodipodi="http://sodipodi.sourceforge.net/DTD/sodipodi-0.dtd"
   xmlns:inkscape="http://www.inkscape.org/namespaces/inkscape"
   version="1.1"
   width="1000.0001"
   height="231.99989"
   id="svg6"
   viewBox="0 0 1000.0001 231.99989"
   sodipodi:docname="Norsan_Media_Logo.cdr.svg"
   inkscape:version="1.0.1 (3bc2e813f5, 2020-09-07)">
  <metadata
     id="metadata12">
    <rdf:RDF>
      <cc:Work
         rdf:about="">
        <dc:format>image/svg+xml</dc:format>
        <dc:type
           rdf:resource="http://purl.org/dc/dcmitype/StillImage" />
        <dc:title></dc:title>
      </cc:Work>
    </rdf:RDF>
  </metadata>
  <defs
     id="defs10" />
  <sodipodi:namedview
     pagecolor="#ffffff"
     bordercolor="#666666"
     borderopacity="1"
     objecttolerance="10"
     gridtolerance="10"
     guidetolerance="10"
     inkscape:pageopacity="0"
     inkscape:pageshadow="2"
     inkscape:window-width="751"
     inkscape:window-height="480"
     id="namedview8"
     showgrid="false"
     inkscape:zoom="1.1689999"
     inkscape:cx="294.1688"
     inkscape:cy="115.99995"
     inkscape:window-x="0"
     inkscape:window-y="31"
     inkscape:window-maximized="0"
     inkscape:current-layer="svg6" />
  <path
     d="m 112.3299,0 h 7.38 c 3.4801,0.1599 6.95,0.51 10.4301,0.7999 -7.99,28.95 -9.68,59.4499 -5.8901,89.1899 3.4302,28.44 11.41,56.1402 21.5901,82.8402 -1.6699,-15.58 -3.68,-31.17 -3.64,-46.8802 -0.76,-39.3599 6.4301,-79.2 23.2699,-114.9298 24.77,11.52 45.2602,32.0598 56.5602,56.95 11.96,25.74 13.69,55.98 5.0899,82.9998 -7.3,23.2197 -22.2001,43.9197 -41.7801,58.3501 -18.8799,14.0301 -42.1098,21.9699 -65.5999,22.68 h -7.3701 c -2.9999,-0.1602 -5.9899,-0.44 -8.9799,-0.65 7.13,-25.0699 9.43,-51.3899 7.4699,-77.3501 -2.3298,-32.83 -11.16,-64.8301 -22.7098,-95.5298 0.0601,5.22 1.1299,10.3597 1.5999,15.55 4.2899,39.5898 1.9397,80.3401 -10.4698,118.36 -3.1104,9.9301 -7.0801,19.5597 -11.37,29.0398 -25.0501,-11.3898 -45.83,-31.9399 -57.28,-56.98 C 4.3801,151.23 1.11,136.7898 0,122.2699 v -12.71 C 0.4102,105.1699 0.9499,100.8 1.65,96.45 6.37,67.9997 22.32,41.5899 45.2699,24.1398 64.3399,9.2798 88.1898,0.8399 112.3299,0 Z"
     style="fill:#666666;fill-rule:evenodd"
     id="path2" />
  <path
     d="m 436.63009,3.8599 c 16.45,-2.8 34.2499,-0.9601 48.7599,7.74 12.8701,7.7001 23.25,20.3599 26.2,35.28 2.38,11.99 1.4199,24.84 -3.7301,36 -7.2099,15.3 -22.0099,26.3398 -38.2799,30.3801 -11.77,2.8598 -24.1999,2.9999 -36.03989,0.5099 -16.13001,-3.3301 -31.00001,-13.4501 -39.17001,-27.86 C 387,72.54 385.9299,56.0999 390.44999,41.62 c 6.6,-20.0302 25.7001,-34.3701 46.1801,-37.7601 z m 9.9598,15.0699 c -12.07979,0.57 -24.2498,5.32 -32.3799,14.5 -14.04,15.09 -12.6201,41.8799 3.28991,55.1401 11.00019,9.51 26.35999,11.8401 40.41019,10.37 10.01,-1.0499 19.9298,-4.9601 27.1199,-12.1501 14.9601,-14.58 14.7299,-41.8899 -1.05,-55.7898 -9.89,-9.3802 -24.0301,-12.96 -37.3901,-12.0702 z M 668.85988,7.74 c 12.76011,-4.7302 26.7301,-4.93 40.1301,-3.6901 14.46,1.5199 28.7801,6.3201 40.4299,15.15 -3.3599,3.89 -6.5999,7.88 -9.8699,11.85 -13.8501,-7.6902 -29.5699,-12.4402 -45.5,-11.9699 -8.5601,0.18 -17.8901,0.7299 -25.05009,5.9499 -4.2398,2.9801 -5.78981,9.33 -2.74001,13.68 3.0702,4.3399 8.62021,5.73 13.5701,6.6901 17.78001,2.9199 36.2701,1.4998 53.63,6.9397 8.07,2.5402 16.3301,7.2902 19.6501,15.4903 3.8999,9.93 2.6498,21.96 -3.7301,30.6 -5.0301,6.4998 -12.5099,10.65 -20.2601,13.03 -11.66,3.56 -24.0199,3.74 -36.0998,3.17 -17.4702,-0.9902 -35.35,-6.0302 -48.84999,-17.6001 2.97979,-4.28 5.95989,-8.57 8.9498,-12.8701 15.40999,10.51 34.16009,16.1501 52.84009,15.2402 9.4099,-0.4102 19.7201,-1.7102 27.0799,-8.1502 5.8201,-4.82 6.4902,-14.8399 0.8,-20.0101 -5.7198,-4.8699 -13.61,-5.1397 -20.7099,-5.9799 -15.3199,-1.8598 -30.9901,-1.4998 -45.9701,-5.5999 -5.86989,-1.5701 -11.84989,-4.2899 -15.44,-9.39 -4.71999,-6.73 -5.04989,-15.73 -2.8298,-23.4099 2.8199,-9.3201 11.12991,-15.84 19.9698,-19.12 z M 264.67,6.1098 c 6.7099,-0.0198 13.4099,0 20.12,-0.0099 24.7601,29.0401 49.44,58.1499 74.28,87.1101 0.0501,-29.02 0.0201,-58.0502 0.0201,-87.0702 5.3799,-0.0799 10.76,-0.0099 16.13991,-0.0198 0.01,35.43 -0.0899,70.85 0.0499,106.2799 -6.77989,0.01 -13.5698,0.1299 -20.33999,-0.0799 -24.5999,-29.1402 -49.5,-58.0402 -74.13,-87.15 0.0601,29.0698 -0.0198,58.14 0.04,87.2098 -5.4,0.1001 -10.8099,0.04 -16.2099,0.0301 0.11,-35.43 0.0399,-70.8702 0.03,-106.3001 z m 260.71999,0.0201 c 25.8701,-0.0601 51.72999,-0.0399 77.6001,-0.0099 8.17,-0.0601 16.7099,2.4097 22.5799,8.3098 6.63989,6.2702 9.50999,15.6302 9.3399,24.6002 0.28009,8.5098 -2.07981,17.5799 -8.35991,23.6398 -4.4,4.67 -10.59989,7.1702 -16.81009,8.3401 8.71009,13.7899 17.3501,27.6301 26.09999,41.39 -6.30989,0.0301 -12.6198,0.0701 -18.92999,-0.03 -8.1998,-12.8801 -16.6399,-25.6099 -24.8998,-38.45 -0.7101,-0.9901 -1.4301,-2.48 -2.95,-2.0701 -15.8301,0 -31.6602,-0.01 -47.4801,0.0102 -0.01,13.5297 -0.0201,27.0598 0,40.5997 -5.39,-0.0399 -10.7699,-0.0498 -16.1501,-0.01 -0.0499,-35.4397 0.0301,-70.8799 -0.0399,-106.3198 z m 16.2,15.7198 c -0.04,11.3701 -0.0301,22.7302 0,34.09 20.1401,0.0103 40.28,0.2702 60.4301,-0.0498 4.6099,-0.19 9.5,-1.48 12.7298,-4.9902 3.77999,-4.2899 4.2001,-10.5199 3.26999,-15.9298 -0.72,-4.3801 -3.34,-8.5502 -7.39979,-10.5302 -5.73,-2.9599 -12.3701,-2.5398 -18.61,-2.5599 -16.81001,-0.0199 -33.6101,0.0399 -50.4201,-0.0301 z M 814.02998,6.2399 c 6.8701,-0.2599 13.7699,-0.18 20.6501,-0.03 17.03989,35.4299 34.31,70.7499 51.29999,106.2 -5.89999,0.01 -11.79009,0.0601 -17.68019,-0.0301 -3.6698,-7.9398 -7.42991,-15.84 -11.1498,-23.7501 -21.82,-0.0297 -43.64,0.0202 -65.45,-0.0297 -3.8001,7.92 -7.52,15.8697 -11.2501,23.8099 -5.94,0.0201 -11.8701,0.0498 -17.7999,-0.0202 17.2899,-35.2998 34.4199,-70.6997 51.3799,-106.1498 z m 10.1801,15.5699 c -8.0802,17.0402 -16.5201,33.9001 -24.6702,50.9 16.6201,0 33.2501,0.04 49.8702,-0.0099 -7.60001,-15.2201 -14.7801,-30.64 -22.1902,-45.9499 -0.9499,-1.6702 -1.3598,-3.78 -3.0098,-4.9402 z m 65.3598,-15.7499 c 6.6801,0.0899 13.36,0 20.04999,0.07 24.7901,28.9701 49.36,58.1199 74.24,86.9998 -0.0698,-29.0097 -0.0698,-58.0198 -0.01,-87.0298 5.3801,0 10.76,0 16.15013,0 V 112.43 c -6.70003,-0.0102 -13.40003,0.01 -20.10023,-0.0201 -24.74,-29.06 -49.5099,-58.0902 -74.2198,-87.1801 -0.08,29.08 0.0499,58.1601 -0.0701,87.2402 -5.36991,-0.0701 -10.7399,-0.04 -16.09991,-0.0301 0.07,-35.46 -0.0502,-70.92 0.0598,-106.38 z M 264.5399,130.6298 c 5.8802,-0.07 11.77,0.04 17.6502,-0.0601 13.6199,18.7603 27.2699,37.4803 40.83,56.27 13.57,-18.82 27.28,-37.5398 40.9699,-56.27 5.84989,0.0601 11.69009,0.0601 17.5301,-0.01 0,31.0399 0.0499,62.0799 -0.0202,93.1201 -4.6998,-0.1301 -9.39,-0.11 -14.07989,-0.0198 -0.1999,-25.38 0.27009,-50.7904 -0.24011,-76.1602 -14.8099,20.0699 -29.30999,40.3801 -44.16979,60.4103 -1.1202,-0.4405 -1.5502,-1.7904 -2.3201,-2.6303 -13.86,-19.4198 -28.0001,-38.66 -41.8901,-58.06 -0.1698,25.4602 -0.08,50.9301 -0.0499,76.3903 -4.76,-0.1602 -9.5499,0.2795 -14.29,-0.2206 0.2599,-30.9197 0.1,-61.8397 0.0799,-92.7598 z m 136.57009,0 c 28.59991,-0.0399 57.1901,-0.03 85.7801,0 -0.08,4.6401 0.0598,9.2804 -0.11,13.9201 -23.87,-0.07 -47.73009,-0.0802 -71.6,0 0.1499,7.9299 0.01,15.8499 0.0598,23.7801 16.6002,0.08 33.2101,0.0499 49.81011,0.01 0.11,4.6403 0,9.2903 0.0601,13.93 -16.63,-0.01 -33.2601,-0.0595 -49.9,0.0198 0.0598,9.1205 0.0199,18.2404 0.0199,27.3603 25.0001,0.1199 49.99999,-0.0198 75.00009,0.07 -0.07,4.65 0.08,9.3102 -0.0901,13.9601 -29.6799,-0.1602 -59.35009,-0.0601 -89.0201,-0.0601 0.0502,-30.9898 0.0502,-61.9897 -0.01,-92.99 z m 101.48,-0.03 c 18.11,0.0201 36.22,0.0102 54.33,0 12.06,-0.01 24.6699,3.3899 33.5999,11.84 9.3801,8.4203 13.88009,21.1402 14.0502,33.5497 0.61989,12.1904 -3.35001,24.8406 -12.0702,33.5906 -8.1598,9.0998 -20.34001,14.0698 -32.4899,14.0097 -19.1599,-0.0199 -38.3201,0.1403 -57.4701,-0.0701 0.1601,-30.9801 0.0601,-61.95 0.0501,-92.9199 z m 14.1299,13.8999 c 0.0301,21.7103 0.04,43.42 0,65.1399 14.44,0.1301 28.8802,0.0204 43.3202,0.0502 5.83989,0.11 11.7899,-1.4298 16.5399,-4.9003 7.09,-4.9595 11.5299,-13.2295 12.41999,-21.7698 1.29991,-10.3597 -1.00009,-21.8097 -8.53999,-29.4397 -5.7101,-6.1404 -14.18,-9.1301 -22.4501,-9.07 -13.7698,-0.0205 -27.5298,0 -41.29,-0.0103 z m 102.15009,-13.9098 c 4.7401,0.01 9.4899,0.0601 14.2399,-0.0202 -0.0598,31.03 0.1001,62.0603 -0.07,93.0904 -4.6999,-0.0601 -9.4,-0.1001 -14.0998,0.0198 -0.13011,-31.03 0.0198,-62.06 -0.0701,-93.09 z m 21.27011,92.8902 c 15.14999,-30.8801 30.05999,-61.8804 44.98979,-92.8602 5.94,-0.03 11.8902,0 17.8401,-0.0201 14.9701,31.0201 30.0399,62.0002 44.9799,93.0302 -5.1798,-0.07 -10.3598,0.0199 -15.5398,-0.0502 -3.1,-6.9298 -6.38,-13.78 -9.6801,-20.6101 -19.0199,-0.4499 -38.12989,0.0102 -57.17989,-0.2299 -3.3902,6.88 -6.63021,13.8402 -9.83021,20.8301 -5.1999,-0.01 -10.3998,0.1698 -15.57979,-0.0898 z m 32.19989,-34.5904 c 14.47001,-0.07 28.94,-0.01 43.41,-0.0297 -7.0699,-15.05 -14.39009,-29.9903 -21.57989,-44.9901 -7.16001,15.0602 -14.61001,29.9903 -21.83011,45.0198 z"
     style="fill:#808080;fill-rule:evenodd;stroke-width:1"
     id="path4" />
</svg>
