<?xml version="1.0" encoding="UTF-8" standalone="no"?>
<svg
   xmlns:dc="http://purl.org/dc/elements/1.1/"
   xmlns:cc="http://creativecommons.org/ns#"
   xmlns:rdf="http://www.w3.org/1999/02/22-rdf-syntax-ns#"
   xmlns:svg="http://www.w3.org/2000/svg"
   xmlns="http://www.w3.org/2000/svg"
   xmlns:sodipodi="http://sodipodi.sourceforge.net/DTD/sodipodi-0.dtd"
   xmlns:inkscape="http://www.inkscape.org/namespaces/inkscape"
   version="1.1"
   width="752"
   height="173.00011"
   id="svg8"
   viewBox="0 0 752 173.00011"
   sodipodi:docname="wescale.svg"
   inkscape:version="1.0.1 (3bc2e813f5, 2020-09-07)">
  <metadata
     id="metadata14">
    <rdf:RDF>
      <cc:Work
         rdf:about="">
        <dc:format>image/svg+xml</dc:format>
        <dc:type
           rdf:resource="http://purl.org/dc/dcmitype/StillImage" />
        <dc:title />
      </cc:Work>
    </rdf:RDF>
  </metadata>
  <defs
     id="defs12" />
  <sodipodi:namedview
     pagecolor="#ffffff"
     bordercolor="#666666"
     borderopacity="1"
     objecttolerance="10"
     gridtolerance="10"
     guidetolerance="10"
     inkscape:pageopacity="0"
     inkscape:pageshadow="2"
     inkscape:window-width="1366"
     inkscape:window-height="709"
     id="namedview10"
     showgrid="false"
     inkscape:zoom="1.5545213"
     inkscape:cx="376"
     inkscape:cy="86.500053"
     inkscape:window-x="0"
     inkscape:window-y="31"
     inkscape:window-maximized="1"
     inkscape:current-layer="svg8"
     inkscape:document-rotation="0" />
  <path
     d="m 81.5897,0 h 7.0501 c 33.1602,0.5803 65.0001,21.9702 77.4402,52.7902 -14.8501,3.89 -29.9199,6.8899 -45.03,9.61 -1.95,0.04 -2.5999,1.9499 -3.02,3.5201 -3.5399,12.2099 -7.2199,24.3799 -10.73,36.5998 C 106.2999,91.0301 105.93,79.49 105,68 c 0.1301,-1.5998 -1.37,-3.0299 -2.9699,-2.66 -10.0103,1.22 -20.0103,2.7 -29.9999,4.1102 -1.5905,0.0298 -2.0699,1.66 -2.5104,2.89 C 66.55,81.4603 63.7301,90.6401 60.6499,99.72 59.9801,90.8303 59.8602,81.9 59.0501,73.0301 58.55,70.16 54.9897,71.1502 52.9499,71.13 35.6501,72.6401 18.3,73.6699 0.9302,73.9103 3.9301,51.3901 16.7399,30.49 34.9802,17.0402 48.4199,6.9401 64.8602,1.2101 81.5897,0 Z"
     style="fill:#999999;fill-rule:evenodd"
     id="path2" />
  <path
     d="m 121.05,62.4002 c 15.1101,-2.7201 30.1799,-5.72 45.03,-9.61 0.7901,2.2198 1.7099,4.3798 2.5901,6.5599 -0.2801,-0.54 -0.8402,-1.6101 -1.12,-2.1501 -5.2801,1.7102 -10.73,2.7902 -16.06,4.3002 -9.9501,22.9102 -19.65,45.9397 -29.5302,68.8799 -10.4099,0.22 -20.8298,0.0802 -31.24,0.07 C 88.8501,114.55 87.7698,98.5603 86.1898,82.6302 81.02,98.5105 75.9601,114.44 70.8,130.3302 c -11.1603,0.22 -22.3399,0.3399 -33.4897,-0.07 C 34.4198,114.5398 31.8,98.7701 28.7698,83.0803 28.6397,81.1301 26.4103,81.6701 25.1199,81.6803 16.8501,82.4202 8.58,83.1104 0.3103,83.8103 0.27,83.3803 0.1898,82.5199 0.1501,82.1001 0.41,79.3604 0.6802,76.64 0.9302,73.9103 18.3,73.6699 35.6501,72.6401 52.9499,71.13 c 2.0398,0.0202 5.6001,-0.97 6.1002,1.9001 0.8101,8.8699 0.93,17.8002 1.5998,26.6899 3.0802,-9.0799 5.9001,-18.2597 8.8699,-27.3798 0.4405,-1.23 0.9199,-2.8602 2.5104,-2.89 9.9896,-1.4102 19.9896,-2.8902 29.9999,-4.1102 1.5999,-0.3699 3.1,1.0602 2.9699,2.66 0.93,11.49 1.2999,23.0301 2.3,34.5201 3.5101,-12.2199 7.1901,-24.3899 10.73,-36.5998 0.4201,-1.5702 1.07,-3.4801 3.02,-3.5201 z"
     style="fill:#cccccc;fill-rule:evenodd"
     id="path4" />
  <path
     d="m 657.3701,53.9802 c 5.4,-0.2501 10.8,-0.0502 16.2,-0.11 -6.8301,24.2997 -13.72,48.5798 -20.6201,72.86 -5.36,0 -10.7201,0 -16.0699,0 6.7099,-24.2802 13.79,-48.4699 20.49,-72.75 z m -505.88,7.52 c 5.33,-1.51 10.7799,-2.59 16.06,-4.3002 0.2798,0.54 0.8399,1.6101 1.12,2.1501 4.82,13.9 5.5998,29.0999 2.9398,43.5399 -3.9099,20.6203 -15.6898,39.63 -32.4,52.3205 C 125.6101,165.74 108.8001,171.8399 91.67,173.0001 H 81.3199 C 63.9699,171.8303 46.9501,165.5603 33.2602,154.7802 16.9899,142.2502 5.4999,123.69 1.5102,103.5502 1.0101,100.7201 0.63,97.8803 -1e-4,95.0803 v -14.4 l 0.1502,1.4198 c 0.0397,0.4198 0.1199,1.2802 0.1602,1.7102 8.2697,-0.6999 16.5398,-1.3901 24.8096,-2.13 1.2904,-0.0102 3.5198,-0.5502 3.6499,1.4 3.0302,15.6898 5.65,31.4595 8.5405,47.1799 11.1498,0.4099 22.3294,0.29 33.4897,0.07 5.1601,-15.8902 10.22,-31.8197 15.3898,-47.7 1.58,15.9301 2.6603,31.9198 4.5301,47.8199 10.4102,0.0102 20.8301,0.15 31.24,-0.07 9.8802,-22.9402 19.5801,-45.9697 29.5302,-68.8799 z m 96.84,12.85 c 2.95,-3.7001 8.2899,-5.2702 12.7199,-3.5402 2.2,0.94 2.96,3.38 3.3701,5.5298 2.0699,10.8102 4.1298,21.6301 6.2198,32.4403 9.3402,-12.3602 18.58,-24.7998 27.97,-37.1299 5.3601,0.04 10.7201,0.0099 16.0801,0.0198 -12.8001,16.8903 -25.55,33.8301 -38.3601,50.7198 -2.2099,3.0104 -5.4598,5.4706 -9.2699,5.8303 -3.5101,0.65 -7.56,-1.3598 -8.2199,-5.0598 -2.3102,-11.4203 -4.4002,-22.8802 -6.6302,-34.3103 -9.0799,11.3899 -18.0298,22.8801 -27.1499,34.2303 -3.1301,4.1199 -8.8399,6.4999 -13.8399,4.5397 -2.2502,-0.8802 -3.0501,-3.3999 -3.32,-5.5896 -2.7802,-16.7905 -5.6001,-33.5702 -8.3902,-50.3604 5.2001,-0.0099 10.3901,-0.0099 15.5902,0 1.9398,12.3302 3.8299,24.6603 5.77,36.9902 9.3299,-11.2901 18.1199,-23.0301 27.46,-34.31 z m 76,0.9198 c 6.6498,-3.4599 14.36,-3.4698 21.67,-3.6 8.97,0.0103 17.9498,-0.0399 26.93,0.0301 4.75,0.1899 9.9899,0.4 13.9399,3.4002 3.1799,2.41 3.35,6.8697 2.4801,10.43 -1.6101,6.4698 -3.6,12.8398 -5.3501,19.2597 -19.73,0.0301 -39.4501,-0.0201 -59.1801,0.0301 -0.6698,2.6904 -1.7699,5.3402 -1.7498,8.1499 0.39,2.27 3.17,2.1501 4.93,2.27 17.32,0.0799 34.6399,0.0102 51.9599,0.03 -1.3201,3.82 -2.6399,7.6502 -3.99,11.4602 -16.6601,-0.03 -33.3199,0.07 -49.9799,-0.0499 -5.51,-0.28 -11.7502,-0.6905 -15.8902,-4.8002 -3.78,-4.0101 -2.9999,-10.08 -1.7099,-14.9499 1.8301,-6.3 3.3299,-12.7103 5.5599,-18.8802 1.9502,-5.2197 5.29,-10.1999 10.3802,-12.78 z m 7.38,10.5404 c -2.5702,2.3998 -3.1601,6.05 -4.1601,9.2596 14.47,0 28.9301,0.0103 43.3899,-0.0096 0.7602,-3.0404 1.7201,-6.0403 2.3502,-9.1205 0.4799,-1.9499 -1.7101,-2.5999 -3.1802,-2.5098 -9.72,-0.0799 -19.44,0 -29.16,-0.0402 -3.1799,0.0402 -6.7399,0.1902 -9.2398,2.4205 z M 405.95,74.8502 c 4.11,-2.8099 9.2999,-3.09 14.12,-3.1699 16.9401,-0.0403 33.8799,0.0297 50.8201,-0.0403 -0.9301,3.8602 -2.13,7.6402 -3.17,11.4704 -15.6002,0.0595 -31.2001,-0.0204 -46.8,0.0397 -1.9602,0.0198 -4.4501,0.1899 -5.4,2.23 -0.9902,2.4199 -1.9902,5.0099 -1.69,7.67 13.0898,0.9604 26.28,-0.1698 39.3998,0.6001 3.42,0.3897 7.8101,1.11 9.3201,4.71 1.4,4.2599 -0.2401,8.7001 -1.3,12.85 -1.3,4.4297 -2.8301,9.29 -6.8,12.0598 -4.5,3.0602 -10.1699,3.2604 -15.4299,3.4404 -17.02,0.0499 -34.0401,0 -51.0601,0.0198 1.07,-3.9501 2.19,-7.8999 3.2901,-11.8499 16.2598,-0.0905 32.5199,0.1 48.7698,-0.0905 5.0902,0.0706 6.6801,-5.6095 6.8001,-9.7197 -0.3799,-1.6001 -2.5799,-1.3399 -3.8299,-1.4598 -11.6802,-0.0902 -23.37,0.1199 -35.0501,-0.1103 -3.6499,-0.21 -8.32,-0.7699 -9.98,-4.5799 -1.2101,-3.6199 0.15,-7.39 1.0301,-10.9301 C 400.27,83.2003 401.71,77.9 405.95,74.8502 Z m 79.3001,3.4101 c 7.3298,-6.2801 17.6,-6.5602 26.7698,-6.5903 13.25,0 26.5,-0.0099 39.75,0 -1.2498,4.3405 -2.4299,8.7001 -3.7698,13.0102 -13.65,-0.03 -27.29,-0.0198 -40.94,-0.0102 -4.3302,0.0199 -9.3702,0.4604 -12.23,4.1701 -3.0802,4.1201 -3.8302,9.3702 -5.37,14.1602 -0.6401,2.7895 -2.0001,6.0298 -0.3702,8.7397 1.9602,2.1802 5.2002,1.9999 7.8902,2.1904 14.3099,0.03 28.62,-0.0202 42.9398,0.0198 -1.1999,4.2698 -2.37,8.5499 -3.6499,12.7998 -15.23,-0.1099 -30.4599,0.12 -45.6899,-0.1199 -5.8102,-0.4101 -12.6601,-0.75 -16.6802,-5.58 -3.7298,-5.1899 -1.8799,-12.02 -0.2999,-17.6499 2.55,-8.8302 4.4101,-18.7602 11.6501,-25.1399 z m 88.1498,4.1899 c 1.0701,-3.6102 2.0001,-7.2604 3.1901,-10.83 13.7999,0.1899 27.6001,-0.1401 41.4,0.17 5.51,0.36 11.96,0.9701 15.7201,5.5798 3.4299,4.6102 1.9698,10.7501 0.4899,15.8 -2.5901,8.4302 -3.71,17.7199 -9.26,24.8802 -4.6899,6.0602 -12.6901,8.0499 -19.98,8.46 -9.97,0.4502 -19.9499,0.1199 -29.92,0.22 -6.4301,-0.1103 -13.0501,0.5199 -19.26,-1.5199 -2.51,-0.8204 -5,-2.5501 -5.72,-5.2101 -1.1299,-3.7103 0.4901,-7.4398 1.3799,-11.0103 1.19,-4.3898 2.81,-9.0499 6.5602,-11.9296 4.7999,-3.7704 11.17,-4.3501 17.0598,-4.5 14.5301,-0.0499 29.0602,-0.0103 43.59,-0.0205 0.5701,-2.4794 1.6402,-5 1.2002,-7.5795 -0.6902,-2.4404 -3.7502,-2.2802 -5.7702,-2.4404 -13.5598,-0.1499 -27.1199,-0.0096 -40.68,-0.0697 z m -5.29,23.58 c -0.9998,2.5501 -1.6798,5.2302 -2.1399,7.9302 -0.03,2.1294 2.49,2.3896 4.0901,2.3998 9.9599,0.1199 19.9398,0 29.9098,0.0502 3.6802,0.0198 7.8001,-0.1602 10.7101,-2.7301 3.39,-2.9905 4.1199,-7.7 5.3499,-11.8102 -13.68,0 -27.3699,-0.04 -41.0499,0.0198 -2.8401,-0.0898 -5.77,1.4403 -6.8701,4.1403 z m 113.6302,-27.22 c 4.7199,-4.8801 11.73,-6.44 18.2698,-6.87 10.01,-0.5202 20.0401,-0.1602 30.06,-0.2801 5.7101,0.07 11.74,-0.2401 17.0601,2.2201 2.7201,1.1699 4.43,3.85 4.8699,6.7198 v 2.52 c -1.5199,7.3301 -3.8999,14.4403 -5.83,21.67 -19.73,0.0205 -39.4699,-0.01 -59.1999,0.0103 -0.68,2.6798 -1.73,5.3299 -1.7501,8.1198 0.32,2.2601 3.0702,2.1903 4.8101,2.3102 17.3599,0.1097 34.7301,0 52.0999,0.0499 -1.3198,3.82 -2.6498,7.6502 -4.03,11.45 -16.05,-0.0102 -32.11,0.0198 -48.1598,-0.0102 -5.04,-0.1199 -10.33,-0.3399 -14.8801,-2.73 -3.0399,-1.55 -5.1699,-4.6698 -5.4701,-8.07 -0.57,-5.6999 1.66,-11.1501 3.0802,-16.5597 2.0999,-7.16 3.6799,-15.0103 9.07,-20.5501 z m 15.1699,5.3003 c -4.8399,1.3198 -6.0299,6.7498 -7.17,10.9499 14.4601,0.0199 28.9199,0.0096 43.38,0.0096 0.6701,-3.6802 2.7201,-7.27 2.09,-11.0698 -5.9601,-1.2898 -12.1499,-0.2801 -18.2001,-0.6001 -6.6898,0.32 -13.5199,-0.7398 -20.0999,0.7104 z"
     style="fill:#666666;fill-rule:evenodd"
     id="path6" />
</svg>
