<?xml version="1.0" encoding="UTF-8" standalone="no"?>
<svg
   xmlns:dc="http://purl.org/dc/elements/1.1/"
   xmlns:cc="http://creativecommons.org/ns#"
   xmlns:rdf="http://www.w3.org/1999/02/22-rdf-syntax-ns#"
   xmlns:svg="http://www.w3.org/2000/svg"
   xmlns="http://www.w3.org/2000/svg"
   xmlns:sodipodi="http://sodipodi.sourceforge.net/DTD/sodipodi-0.dtd"
   xmlns:inkscape="http://www.inkscape.org/namespaces/inkscape"
   version="1.1"
   width="595.27557"
   height="841.88977"
   id="svg18"
   viewBox="0 0 595.27557 841.88977"
   sodipodi:docname="wrike.svg"
   inkscape:version="1.0.1 (3bc2e813f5, 2020-09-07)">
  <metadata
     id="metadata24">
    <rdf:RDF>
      <cc:Work
         rdf:about="">
        <dc:format>image/svg+xml</dc:format>
        <dc:type
           rdf:resource="http://purl.org/dc/dcmitype/StillImage" />
        <dc:title />
      </cc:Work>
    </rdf:RDF>
  </metadata>
  <defs
     id="defs22" />
  <sodipodi:namedview
     pagecolor="#ffffff"
     bordercolor="#666666"
     borderopacity="1"
     objecttolerance="10"
     gridtolerance="10"
     guidetolerance="10"
     inkscape:pageopacity="0"
     inkscape:pageshadow="2"
     inkscape:window-width="815"
     inkscape:window-height="480"
     id="namedview20"
     showgrid="false"
     inkscape:zoom="0.64141414"
     inkscape:cx="297.63779"
     inkscape:cy="420.94489"
     inkscape:window-x="0"
     inkscape:window-y="31"
     inkscape:window-maximized="0"
     inkscape:current-layer="svg18"
     inkscape:document-rotation="0" />
  <path
     d="M 102.9249,336.2871 V 505.6027 H 492.3507 V 336.2871 Z"
     style="fill:none;fill-rule:evenodd"
     id="path2" />
  <path
     d="m 195.8872,389.5132 -18.2183,54.7051 -16.6463,-54.4601 h -18.4652 l 27.1066,81.2215 h 14.6827 l 17.9733,-53.868 17.6783,53.868 h 14.6826 l 27.205,-81.2215 h -18.12 l -16.598,54.4601 -18.3649,-54.7051 z"
     style="fill:#666666;fill-rule:evenodd"
     id="path4" />
  <path
     d="m 262.9661,470.9797 v -57.5522 h 16.2547 v 12.669 c 5.0092,-14.8776 21.9506,-12.669 21.9506,-12.669 v 15.9596 c 0,0 -21.9506,-1.6202 -21.9506,16.2046 v 25.388 z"
     style="fill:#666666;fill-rule:evenodd;stroke-width:1"
     id="path6" />
  <path
     d="m 308.7828,470.9797 v -35.4548 l 16.2528,-15.516 v 50.9708 z"
     style="fill:#666666;fill-rule:evenodd"
     id="path8" />
  <path
     d="m 338.6882,470.9797 v -63.5915 l 16.2547,-16.2046 v 43.2128 l 19.8386,-20.9689 h 19.9852 l -25.0427,25.9782 28.9718,31.574 h -21.0171 l -22.7358,-24.7978 v 24.7978 z"
     style="fill:#666666;fill-rule:evenodd"
     id="path10" />
  <path
     d="m 436.1644,435.9684 c -0.3434,-6.2862 -4.8126,-11.3938 -11.9822,-11.3938 -7.2681,0 -12.179,4.6659 -12.9641,11.3938 z m -31.8208,27.5484 c -6.0412,-5.4511 -9.0851,-12.7673 -9.0851,-21.754 0,-8.4466 2.7506,-15.5178 8.1998,-21.2139 5.451,-5.7943 12.6206,-8.6433 21.4106,-8.6433 8.2999,0 14.8311,2.9455 19.6919,8.79 4.911,5.7943 7.4147,12.8656 7.4147,21.3122 v 4.1741 h -40.7574 c 1.6686,7.758 8.9867,11.8838 19.0034,11.8838 6.3846,0 12.424,-1.7186 18.2183,-5.0092 v 12.8656 c -5.1058,3.879 -12.2754,5.7944 -21.6556,5.7944 -8.8381,0 -16.4013,-2.7487 -22.4406,-8.1997 z"
     style="fill:#666666;fill-rule:evenodd"
     id="path12" />
  <path
     d="M 341.8304,370.4597 305.4439,406.8481 316.2457,417.7 363.486,370.4597 Z"
     style="fill:#4d4d4d;fill-rule:evenodd"
     id="path14" />
  <path
     d="m 309.7646,389.5615 h -21.6073 l 28.0884,28.0903 10.8538,-10.8037 z"
     style="fill:#333333;fill-rule:evenodd"
     id="path16" />
</svg>
